<?xml version="1.0" standalone="no"?>
<!DOCTYPE svg PUBLIC "-//W3C//DTD SVG 20010904//EN"
 "http://www.w3.org/TR/2001/REC-SVG-20010904/DTD/svg10.dtd">
<svg version="1.0" xmlns="http://www.w3.org/2000/svg"
 width="737.000000pt" height="737.000000pt" viewBox="0 0 737.000000 737.000000"
 preserveAspectRatio="xMidYMid meet">
<metadata>
Created by potrace 1.11, written by Peter Selinger 2001-2013
</metadata>
<g transform="translate(0.000000,737.000000) scale(0.100000,-0.100000)"
fill="#000000" stroke="none">
<path d="M3355 7296 c-33 -8 -78 -21 -99 -30 -21 -9 -57 -16 -80 -16 -59 0
-216 -28 -311 -55 -44 -13 -118 -31 -165 -40 -103 -21 -222 -65 -303 -113 -86
-52 -196 -164 -237 -242 -18 -36 -50 -83 -71 -105 -21 -21 -53 -66 -71 -100
-30 -54 -33 -68 -33 -145 0 -76 4 -93 32 -150 18 -36 56 -91 84 -124 55 -61
50 -67 -23 -30 -37 19 -46 0 -18 -38 28 -38 19 -46 -27 -24 -47 22 -67 7 -35
-27 l23 -24 -41 -28 c-59 -41 -124 -145 -90 -145 7 0 8 -13 5 -34 -8 -38 7
-55 30 -36 13 11 13 8 3 -20 -8 -25 -8 -49 1 -95 17 -93 14 -111 -24 -161 -37
-48 -41 -59 -25 -69 5 -3 7 -20 3 -37 -6 -29 -4 -31 19 -26 25 5 26 3 31 -59
4 -35 17 -90 30 -123 22 -52 24 -70 19 -155 -5 -94 -5 -96 -43 -139 -31 -35
-36 -46 -25 -55 7 -6 17 -7 21 -3 5 4 -2 -10 -14 -30 -12 -21 -20 -38 -18 -38
3 0 -7 -13 -23 -28 -33 -33 -47 -90 -56 -229 -4 -57 -13 -107 -21 -120 -43
-65 -58 -220 -44 -433 11 -173 27 -240 70 -287 28 -33 101 -72 132 -73 12 0
18 -13 23 -49 42 -317 157 -676 279 -868 38 -59 36 -86 -7 -101 -108 -39 -221
-267 -280 -563 -4 -18 -18 -31 -47 -44 -59 -27 -120 -78 -144 -121 -17 -30
-45 -52 -136 -104 -170 -97 -267 -168 -309 -225 -51 -69 -142 -151 -203 -181
-27 -14 -79 -56 -116 -92 -44 -45 -84 -75 -121 -91 -148 -63 -278 -135 -325
-181 -67 -64 -165 -126 -234 -147 -62 -19 -134 -66 -179 -117 -16 -19 -40 -37
-53 -41 -13 -4 -43 -21 -66 -37 -41 -27 -43 -31 -42 -76 l1 -47 11 35 c13 42
26 53 94 86 28 14 79 52 112 84 43 42 73 62 103 70 90 24 200 93 303 190 17
16 52 39 80 51 27 12 70 35 96 50 25 16 54 29 64 29 32 0 129 63 186 120 30
31 80 70 109 86 53 28 181 148 228 212 25 34 198 151 327 222 44 24 83 48 86
53 3 4 4 -26 1 -68 -4 -71 -2 -80 28 -140 18 -35 41 -72 51 -81 11 -9 19 -24
19 -32 0 -18 77 -167 105 -201 11 -14 35 -48 53 -76 50 -79 315 -471 384 -569
35 -49 70 -99 78 -112 46 -70 156 -229 259 -372 l116 -162 308 0 308 0 -18 31
c-31 52 -300 318 -363 357 -14 9 -52 37 -85 62 -33 25 -95 69 -137 98 -42 28
-80 57 -84 63 -17 29 166 -26 281 -84 97 -48 269 -170 258 -181 -13 -13 -70
-5 -108 14 -49 25 -53 25 -29 -1 10 -12 37 -30 59 -40 45 -21 141 -26 129 -8
-12 20 51 -22 113 -75 33 -28 106 -93 161 -143 l102 -93 84 0 c90 0 90 0 100
43 l7 29 -58 -7 -58 -6 25 21 c14 12 63 57 110 100 143 130 304 270 312 270 3
0 10 -9 13 -20 4 -11 18 -34 32 -50 l26 -31 -23 -72 c-12 -40 -33 -93 -46
-118 -19 -39 -64 -148 -64 -156 0 -2 24 -3 53 -3 l53 0 74 130 c40 72 81 137
92 144 10 7 29 45 42 83 24 71 144 303 156 303 4 0 19 -39 35 -87 l29 -87 13
85 c12 78 17 126 43 379 12 112 40 446 40 472 0 10 4 18 8 18 5 0 14 -53 21
-117 7 -65 18 -174 26 -243 7 -69 19 -181 25 -250 6 -69 17 -188 25 -265 14
-138 28 -305 41 -477 l6 -88 169 0 168 0 -5 53 c-41 408 -152 904 -287 1282
-63 177 -94 252 -177 430 -41 89 -80 183 -80 195 0 17 16 11 71 -26 291 -198
582 -524 677 -759 43 -108 52 -137 52 -178 0 -56 24 -189 50 -279 55 -189 169
-346 280 -385 91 -31 189 -157 221 -280 l13 -53 168 0 c97 0 168 4 168 9 0 5
-5 22 -11 38 -56 148 -61 534 -13 936 9 71 13 131 11 133 -3 3 -14 -23 -25
-58 -11 -35 -45 -123 -76 -195 -31 -73 -56 -135 -56 -138 0 -21 -124 -295
-131 -288 -4 4 -21 49 -38 98 -17 50 -49 142 -72 205 -22 63 -63 178 -90 255
-26 77 -58 165 -69 195 -11 30 -32 91 -46 135 -14 44 -30 91 -36 105 -29 69
-85 240 -79 240 3 0 23 -11 43 -25 20 -14 59 -33 86 -44 27 -11 69 -29 93 -40
88 -40 218 -90 325 -126 119 -40 132 -46 184 -95 45 -42 98 -78 192 -128 43
-23 99 -64 125 -90 41 -41 57 -51 108 -61 63 -14 195 -86 195 -108 0 -6 -6
-40 -14 -75 -21 -90 -36 -367 -36 -642 l0 -236 43 0 44 0 6 148 c9 229 53 392
138 521 40 60 49 82 49 118 0 38 -5 49 -44 88 -24 24 -64 54 -88 66 -23 12
-62 38 -85 58 -49 44 -133 86 -198 101 -61 14 -96 35 -116 68 -9 16 -47 43
-90 66 -96 50 -184 109 -234 157 -32 30 -62 45 -145 72 -247 81 -466 174 -573
244 -110 72 -356 195 -514 257 -131 51 -419 150 -503 172 -33 8 -40 18 -100
139 -36 72 -80 157 -98 190 -17 33 -32 73 -32 89 0 19 22 62 66 127 116 173
160 297 214 600 39 217 50 269 59 269 20 0 102 86 130 135 93 164 121 356 112
759 -2 79 0 101 12 108 13 7 10 18 -19 75 -48 95 -75 208 -77 328 l-2 101 37
43 c43 51 73 147 97 320 14 101 19 115 41 130 35 23 47 39 71 101 19 49 20 61
10 117 -17 94 -50 170 -96 221 -42 47 -46 58 -64 177 -5 33 -12 78 -16 100 -7
35 -6 38 7 27 12 -10 17 -10 26 1 8 9 4 25 -14 60 -13 27 -24 65 -24 85 0 43
-37 126 -85 194 -19 26 -35 50 -35 52 0 3 12 4 26 3 36 -3 40 15 10 49 -24 29
-25 29 -148 29 l-123 1 -3 31 c-4 39 27 70 86 86 48 13 55 33 13 42 -59 13
-126 -19 -147 -72 -8 -18 -18 -33 -24 -33 -14 0 -80 41 -80 50 0 4 18 10 39
14 45 7 68 26 77 62 10 40 -8 48 -53 26 -35 -18 -133 -42 -173 -42 -20 0 -40
40 -40 81 0 60 -25 96 -100 144 -47 31 -70 52 -68 63 4 23 -77 34 -222 30 -90
-2 -122 -7 -143 -20 -32 -22 -122 -25 -130 -4 -7 17 -54 26 -96 18 -26 -6 -47
0 -100 25 -79 39 -160 48 -246 29z m479 -248 c-29 -49 -230 -283 -344 -401
-123 -127 -230 -221 -230 -201 0 7 23 32 204 224 45 47 146 154 225 238 136
143 162 169 145 140z m-579 -243 c13 -102 -28 -238 -118 -395 -52 -90 -205
-300 -219 -300 -5 0 3 17 17 38 102 153 217 379 261 510 14 42 29 110 31 150
6 81 18 79 28 -3z m-315 32 c0 -15 -45 -80 -110 -157 -106 -126 -180 -220
-225 -285 -51 -75 -50 -68 -29 -205 l5 -35 -31 35 c-37 41 -60 89 -60 124 0
36 -13 39 -50 11 -43 -32 -46 -31 -20 2 32 40 110 123 117 123 3 0 2 -16 -1
-35 -4 -19 -5 -35 -2 -35 3 0 20 21 37 48 85 123 210 284 273 350 66 69 96 87
96 59z m1536 -84 c-4 -4 -45 -15 -91 -25 -73 -15 -152 -43 -320 -112 l-40 -16
36 32 c80 71 233 126 358 127 35 1 61 -2 57 -6z m-1531 -45 c-26 -91 -92 -286
-117 -345 -31 -75 -55 -99 -43 -41 l7 31 -36 -22 c-20 -13 -36 -19 -36 -15 0
4 21 46 46 93 171 316 196 357 179 299z m1585 -18 c22 -7 20 -8 -15 -9 -49 -1
-48 0 -262 -178 -95 -79 -175 -143 -179 -143 -3 0 20 28 51 63 l57 62 -42 3
-42 3 98 49 c106 53 153 84 142 96 -18 17 -314 -120 -498 -230 -51 -31 -95
-54 -97 -52 -11 11 243 174 375 240 177 89 325 124 412 96z m-2425 -120 c-9
-39 -14 -78 -10 -87 4 -10 8 -47 9 -83 1 -51 7 -75 29 -111 41 -69 32 -70 -29
-4 -39 43 -53 66 -50 80 3 11 8 32 11 47 6 23 2 33 -24 57 l-31 29 31 59 c36
66 72 109 77 93 2 -6 -4 -42 -13 -80z m909 -102 c0 -68 -2 -74 -38 -115 -20
-24 -44 -43 -52 -43 -18 0 -18 -7 11 81 21 60 67 149 78 149 1 0 2 -32 1 -72z
m1819 -129 c-101 -50 -183 -119 -183 -154 0 -10 45 -37 127 -76 148 -69 213
-108 266 -158 51 -49 48 -72 -5 -27 -41 35 -140 88 -265 140 -34 14 -64 26
-67 26 -3 0 20 -25 50 -55 50 -49 125 -178 112 -191 -3 -2 -18 18 -35 44 -26
42 -162 172 -180 172 -4 0 20 -27 53 -60 51 -52 134 -170 134 -191 0 -4 -72
64 -160 151 l-160 158 -98 -48 c-133 -66 -183 -81 -282 -86 -93 -5 -87 6 15
25 73 13 182 55 215 82 l25 20 -35 -14 c-55 -22 -169 -45 -245 -51 l-70 -5 60
18 c113 34 321 131 434 202 56 35 47 36 -104 4 -144 -30 -164 -31 -108 -5 96
43 308 94 493 119 118 16 119 12 13 -40z m-818 -37 c-6 -4 -27 -22 -47 -41
-21 -19 -40 -32 -44 -29 -5 6 82 78 94 78 3 0 2 -3 -3 -8z m-500 -51 c-21 -20
-144 -72 -167 -70 -13 1 159 87 177 88 5 1 1 -7 -10 -18z m200 -321 c179 -17
386 -64 476 -110 26 -14 56 -18 112 -18 64 1 85 -3 134 -27 104 -51 222 -187
309 -355 l39 -75 5 -160 5 -160 42 -85 42 -85 11 -175 c14 -219 24 -295 44
-325 38 -57 14 -316 -63 -703 -22 -108 -56 -286 -76 -396 -52 -283 -93 -395
-206 -562 -87 -129 -316 -391 -502 -575 -146 -143 -317 -248 -472 -288 -232
-61 -504 11 -676 180 -22 21 -65 55 -97 75 -98 63 -361 348 -498 539 -232 325
-367 876 -375 1525 -2 147 1 177 24 275 27 113 63 287 97 458 21 106 19 102
69 167 90 117 179 398 206 650 13 122 11 117 63 129 132 31 515 87 682 100
154 12 478 13 605 1z m-1650 -77 c-11 -26 -18 -110 -12 -127 5 -13 19 -9 79
21 83 41 152 52 183 30 26 -20 20 -25 -44 -37 -29 -5 -76 -22 -103 -37 -55
-30 -125 -103 -134 -140 -10 -38 -21 -27 -33 34 -23 116 -8 227 36 261 24 17
36 15 28 -5z m85 -315 c0 -22 -62 -198 -70 -198 -11 0 -30 82 -30 129 0 28 7
48 20 61 22 22 80 28 80 8z m-215 -869 c-5 -46 -16 -86 -31 -112 -28 -49 -32
-82 -9 -73 13 5 14 -5 8 -67 -5 -40 -8 -108 -8 -152 0 -64 3 -80 15 -80 15 0
27 -24 29 -57 1 -25 -16 -22 -57 8 -33 26 -34 29 -28 75 7 51 -5 65 -24 30
-15 -28 -12 -73 5 -99 9 -12 36 -35 60 -52 43 -29 45 -33 45 -79 0 -41 7 -137
24 -313 5 -48 5 -48 -25 -48 -39 0 -109 70 -127 125 -7 22 -17 116 -23 209
-13 200 -3 312 36 392 18 37 25 67 25 110 0 73 16 176 35 220 10 24 21 34 36
34 20 0 21 -3 14 -71z m3138 -47 c28 -29 28 -32 27 -133 -1 -57 1 -147 5 -199
4 -52 2 -131 -3 -175 -10 -78 -12 -81 -56 -121 -45 -39 -58 -64 -34 -64 7 0
25 12 41 28 l29 27 -7 -49 c-17 -121 -109 -306 -167 -337 -19 -10 -20 -9 -15
12 38 156 84 469 92 624 2 50 7 101 9 115 3 14 8 43 12 65 l6 40 24 -47 c24
-47 44 -62 44 -34 0 8 -16 49 -35 92 -28 62 -35 89 -35 141 0 58 2 63 18 54 9
-5 30 -23 45 -39z m-2677 -2114 c174 -216 328 -377 419 -439 28 -19 77 -58
110 -87 77 -69 169 -124 276 -164 80 -30 90 -32 234 -32 132 -1 158 2 220 23
240 81 443 247 773 634 46 53 87 97 91 97 23 0 0 -376 -35 -550 -46 -233 -106
-380 -191 -470 -111 -118 -224 -273 -273 -375 -17 -34 -25 -70 -26 -114 -2
-56 -6 -67 -34 -96 -63 -65 -96 -218 -88 -415 l5 -117 -49 -12 c-28 -6 -69
-25 -94 -42 -41 -30 -94 -97 -94 -119 0 -12 -27 -14 -32 -2 -1 5 -88 86 -193
182 -104 95 -217 198 -251 229 -33 31 -105 97 -159 146 -140 127 -424 389
-517 476 -32 30 -44 57 -108 251 l-72 217 14 58 c10 43 13 148 12 404 -1 190
-4 358 -8 373 -9 38 1 29 70 -56z m-167 1 c-57 -108 -76 -367 -40 -559 24
-128 67 -274 117 -395 62 -152 125 -279 156 -314 17 -20 52 -59 77 -87 25 -29
59 -68 74 -89 16 -20 39 -40 50 -44 12 -5 22 -15 22 -24 0 -19 99 -132 241
-275 63 -63 106 -111 96 -107 -56 21 -174 48 -217 48 -82 1 -161 -51 -153
-101 1 -9 -1 -23 -6 -30 -5 -9 -18 14 -37 68 -15 45 -47 116 -70 158 -48 87
-144 223 -168 236 -30 16 -178 171 -206 216 -58 92 -98 168 -141 270 -41 98
-44 110 -44 195 0 85 29 344 49 445 26 126 98 290 163 372 32 41 56 52 37 17z
m2389 -191 c113 -229 215 -509 231 -633 11 -91 8 -112 -42 -290 -20 -71 -55
-197 -77 -280 -22 -82 -49 -179 -59 -215 -10 -36 -40 -144 -66 -240 -65 -242
-94 -330 -109 -330 -21 0 -106 72 -122 101 -8 16 -14 47 -14 71 l1 43 20 -40
c23 -48 44 -65 79 -65 33 0 66 24 86 61 14 28 14 35 -1 80 -25 75 -85 111
-125 74 -16 -14 -16 -12 -8 37 14 86 2 147 -43 215 -42 66 -134 147 -205 182
-24 12 -46 26 -48 30 -3 4 16 39 41 77 25 38 51 80 59 94 8 14 23 39 34 55 10
17 33 57 51 90 17 33 40 72 50 86 61 87 179 396 215 561 8 40 16 119 17 175 1
57 5 103 8 103 3 0 15 -19 27 -42z m-568 -1270 c0 -18 -2 -20 -9 -8 -6 8 -7
18 -5 22 9 14 14 9 14 -14z m144 -168 c6 -48 5 -65 -4 -68 -26 -9 -84 -68 -97
-100 -19 -45 -4 -91 43 -132 39 -34 68 -38 102 -14 31 22 34 16 12 -26 -11
-19 -22 -42 -26 -50 -4 -8 -35 -46 -70 -85 -61 -69 -143 -127 -197 -141 l-27
-6 17 30 c17 30 17 31 -4 54 -17 18 -24 41 -29 94 -6 68 -5 72 24 113 32 44
84 171 123 301 30 97 34 102 83 98 l41 -3 9 -65z m51 -132 c47 -55 50 -72 25
-112 -38 -62 -83 -73 -124 -29 -39 42 -41 70 -10 115 47 67 70 72 109 26z
m264 -157 l24 -44 -19 -35 c-31 -57 -50 -63 -85 -24 -33 37 -36 59 -13 105 32
61 58 61 93 -2z m-1298 -68 c13 -16 12 -17 -3 -4 -17 13 -22 21 -14 21 2 0 10
-8 17 -17z m-282 -103 c18 -5 38 -13 44 -19 16 -16 -4 -63 -35 -80 -33 -19
-66 -4 -92 40 -17 28 -17 32 -1 55 11 18 22 23 33 19 9 -4 32 -11 51 -15z"/>
<path d="M2493 4751 c-66 -17 -143 -63 -188 -113 -25 -27 -45 -53 -45 -57 0
-4 33 -1 73 6 39 7 121 13 180 13 97 1 118 -2 199 -30 142 -49 313 -57 408
-18 l32 13 -21 26 c-27 35 -105 67 -205 86 -44 8 -118 28 -164 44 -88 31 -212
45 -269 30z"/>
<path d="M4300 4649 c-238 -6 -293 -15 -417 -75 -40 -19 -95 -56 -125 -85 -29
-28 -48 -48 -41 -45 63 32 711 61 923 41 36 -3 71 -1 79 4 32 21 -22 107 -88
140 -49 25 -83 27 -331 20z"/>
<path d="M2605 4509 c-86 -20 -165 -51 -165 -65 0 -18 12 -18 58 2 92 39 246
53 358 33 74 -13 193 -72 235 -116 36 -36 62 -43 57 -16 -8 41 -155 130 -263
159 -56 15 -219 17 -280 3z"/>
<path d="M2665 4451 c-95 -25 -218 -94 -213 -119 4 -19 59 -53 138 -83 50 -19
76 -21 292 -23 268 -1 263 -3 205 70 -46 58 -94 97 -157 130 -46 23 -69 28
-145 30 -49 2 -103 -1 -120 -5z m195 -52 c0 -14 -5 -19 -17 -17 -26 5 -29 38
-4 38 15 0 21 -6 21 -21z m-228 -43 c-4 -46 -1 -57 18 -76 l23 -23 -33 6 c-44
9 -144 59 -143 72 0 9 116 75 132 75 4 0 6 -24 3 -54z m178 34 c0 -5 -4 -10
-10 -10 -5 0 -10 5 -10 10 0 6 5 10 10 10 6 0 10 -4 10 -10z m223 -77 l49 -48
-92 -3 c-51 -1 -95 0 -98 3 -3 2 3 14 14 26 13 14 19 36 19 64 l0 44 29 -19
c16 -10 51 -40 79 -67z"/>
<path d="M3930 4424 c-30 -8 -73 -25 -95 -38 -41 -24 -95 -73 -95 -86 0 -21
17 -16 53 16 60 54 131 84 202 84 l60 -1 -71 -28 c-39 -16 -103 -50 -142 -75
-75 -48 -84 -69 -34 -79 15 -3 72 -14 127 -25 205 -41 341 -37 455 14 66 29
116 75 107 98 -8 21 -102 73 -167 93 -59 17 -163 22 -221 10 -32 -6 -37 -5
-42 13 -6 25 -54 26 -137 4z m306 -55 c9 -15 -11 -32 -41 -34 -30 -1 -30 -1
-8 25 19 22 38 26 49 9z m162 -30 c34 -17 62 -36 62 -43 0 -27 -56 -62 -132
-82 -48 -12 -60 -7 -34 15 21 18 29 64 17 105 -8 31 -7 36 8 36 10 0 46 -14
79 -31z m-378 -27 c0 -21 9 -55 19 -76 l20 -38 -42 7 c-76 12 -180 34 -185 40
-3 3 -1 9 4 14 15 15 158 91 172 91 7 0 12 -14 12 -38z"/>
<path d="M3312 4364 c3 -11 14 -47 23 -80 17 -59 17 -64 0 -118 -12 -37 -34
-75 -62 -106 -43 -48 -164 -131 -210 -145 -24 -7 -30 -20 -13 -30 18 -11 168
76 223 128 74 72 97 124 97 218 -1 49 -7 86 -18 108 -19 38 -49 57 -40 25z"/>
<path d="M3660 4158 c0 -37 104 -152 174 -193 73 -43 186 -54 186 -19 0 10
-15 14 -52 14 -91 1 -175 54 -254 161 -35 48 -54 61 -54 37z"/>
<path d="M3800 3721 c0 -5 44 -41 98 -82 219 -164 372 -361 372 -479 0 -20 5
-30 15 -30 22 0 19 58 -6 124 -41 112 -184 271 -360 404 -91 68 -119 83 -119
63z"/>
<path d="M2945 3656 c-145 -69 -249 -155 -327 -269 -71 -105 -121 -247 -86
-247 9 0 19 19 27 51 52 202 220 370 474 473 38 16 50 36 20 36 -10 0 -59 -20
-108 -44z"/>
<path d="M3740 3667 c0 -7 14 -26 31 -43 48 -44 89 -114 89 -150 0 -25 -7 -38
-29 -54 -36 -25 -105 -50 -139 -50 l-26 0 27 28 c32 33 34 42 9 42 -10 0 -36
-22 -58 -50 -51 -64 -102 -90 -180 -89 -106 1 -135 10 -157 49 -24 44 -67 90
-84 90 -19 0 -15 -11 17 -50 17 -19 30 -38 30 -42 0 -13 -43 -9 -96 8 -59 20
-104 59 -104 91 0 26 33 98 50 108 18 11 31 43 20 50 -13 8 -57 -39 -81 -87
-37 -73 -18 -129 58 -171 27 -14 69 -29 94 -33 24 -3 73 -15 109 -26 114 -34
245 -22 300 26 8 8 38 17 65 21 217 32 265 149 122 299 -45 46 -67 57 -67 33z"/>
<path d="M2190 3299 c0 -6 11 -25 24 -42 36 -49 49 -94 55 -197 5 -75 9 -95
21 -95 12 0 15 14 13 73 -3 91 -26 185 -59 235 -23 35 -54 50 -54 26z"/>
<path d="M4578 3220 c-95 -108 -154 -243 -164 -372 -5 -78 4 -129 25 -136 11
-4 13 7 7 54 -15 139 42 303 148 422 31 34 56 67 56 72 0 24 -32 6 -72 -40z"/>
<path d="M3030 3109 c-41 -5 -129 -19 -195 -32 -102 -20 -120 -26 -123 -43 -1
-11 25 -56 65 -109 133 -176 293 -312 438 -371 59 -23 88 -29 182 -32 222 -8
389 60 539 219 84 90 169 225 158 252 -19 51 -437 117 -774 122 -118 2 -249 0
-290 -6z m600 -44 c74 -9 176 -24 225 -34 l90 -19 -95 -1 c-160 -3 -282 -12
-353 -26 -59 -12 -73 -12 -115 2 -37 13 -97 17 -282 18 -227 2 -305 8 -296 24
9 14 151 38 331 55 74 7 358 -4 495 -19z m-735 -169 c73 -73 181 -139 277
-170 106 -34 341 -53 428 -35 69 14 230 91 333 158 42 28 77 48 77 45 0 -17
-68 -99 -133 -160 -77 -74 -171 -133 -242 -154 -22 -6 -91 -15 -153 -20 -186
-15 -296 20 -450 144 -94 76 -242 239 -242 267 0 15 50 -21 105 -75z m283 72
c24 -31 41 -181 22 -193 -6 -4 -31 3 -55 15 l-45 22 0 77 c0 43 3 81 7 84 11
12 60 8 71 -5z m710 -44 c3 -57 -7 -71 -62 -84 l-34 -7 -4 66 c-3 36 -3 70 -1
74 3 4 26 7 51 5 l47 -3 3 -51z m-813 2 c10 -65 4 -81 -29 -79 -42 3 -56 20
-56 68 0 50 4 55 46 55 31 0 33 -2 39 -44z m258 33 c31 -7 62 -18 68 -25 6 -7
13 -49 16 -93 l6 -79 -47 -7 c-51 -8 -102 -1 -123 16 -13 12 -19 151 -7 183 7
19 14 19 87 5z m435 -6 c4 -10 7 -42 7 -71 0 -44 -4 -57 -24 -73 -36 -29 -79
-25 -92 9 -11 26 -7 122 6 142 3 5 26 10 51 10 33 0 46 -5 52 -17z m-149 -43
c26 -123 8 -150 -104 -150 l-75 0 0 53 c0 28 3 69 6 89 6 34 10 38 48 47 22 5
58 9 78 10 36 1 36 0 47 -49z"/>
<path d="M5010 4242 c0 -4 9 -25 20 -47 11 -22 20 -45 20 -53 0 -19 -36 -86
-54 -101 -19 -16 -21 -31 -3 -31 20 0 54 40 72 83 19 45 12 95 -17 132 -19 24
-38 33 -38 17z"/>
<path d="M4185 690 c-8 -27 10 -49 26 -33 13 13 8 45 -8 50 -6 2 -14 -6 -18
-17z"/>
<path d="M4445 560 c-7 -12 2 -30 16 -30 5 0 9 9 9 20 0 21 -15 27 -25 10z"/>
<path d="M2900 395 c0 -8 7 -15 15 -15 8 0 15 7 15 15 0 8 -7 15 -15 15 -8 0
-15 -7 -15 -15z"/>
<path d="M1742 1288 c-39 -48 -50 -343 -29 -758 9 -173 18 -361 21 -418 2 -57
6 -105 9 -108 2 -2 202 -3 444 -2 l440 3 -95 145 c-345 525 -767 1150 -776
1150 -2 0 -8 -6 -14 -12z"/>
<path d="M1485 1133 c-135 -50 -276 -106 -310 -123 -22 -11 -137 -56 -255
-100 -118 -44 -224 -84 -235 -89 -78 -33 -311 -121 -369 -138 -27 -8 -72 -25
-100 -38 -28 -13 -72 -33 -99 -44 -46 -19 -47 -21 -46 -63 3 -129 0 -125 160
-260 178 -150 220 -186 284 -238 l50 -40 272 0 273 0 0 103 c0 56 -5 152 -10
212 -5 61 -14 213 -19 340 l-10 229 22 25 c37 40 138 111 159 111 18 0 19 -5
13 -52 -11 -92 -25 -200 -41 -308 -33 -236 -43 -309 -54 -395 -14 -110 -29
-212 -37 -243 l-5 -22 230 0 230 0 -8 37 c-50 248 -84 808 -62 1018 5 50 9 91
8 91 -1 1 -19 -5 -41 -13z"/>
<path d="M6736 673 c-89 -161 -133 -380 -104 -523 9 -41 23 -92 31 -113 l16
-37 120 0 121 0 0 35 c0 150 -53 445 -112 620 -31 92 -30 92 -72 18z"/>
<path d="M0 156 l0 -156 193 0 c214 0 203 -6 111 65 -21 17 -86 68 -143 115
-57 47 -116 95 -132 108 l-29 23 0 -155z"/>
</g>
</svg>
