<svg xmlns="http://www.w3.org/2000/svg" viewBox="0 0 90.37 90.28"><defs><style>.cls-1{fill:#82c7bb;}</style></defs><title>analyse1</title><g id="Layer_2" data-name="Layer 2"><g id="Analyse"><path class="cls-1" d="M58.46,67.9,77.81,90.26s13.39,1,12.52-12.68L68,58.28l-2.19-2-9.24,9.13Z"/><path class="cls-1" d="M51.53,67.2s2.69,3.11,7,.72L68,58.37a5.46,5.46,0,0,0-.64-7L65.75,49.6,49.47,65.15Z"/><path class="cls-1" d="M35.57,0A35.57,35.57,0,1,0,71.14,35.57,35.57,35.57,0,0,0,35.57,0ZM56.43,45.95V28.62h-9v27q-.73.43-1.5.81V43.58h-9V58.84c-.42,0-.85,0-1.27,0l-.72,0V35.57h-9V56.73q-1.05-.49-2-1.07V38.23h-9v7.72a23.3,23.3,0,1,1,41.73,0Z"/><path class="cls-1" d="M35.57,6.7A28.87,28.87,0,1,0,64.44,35.57,28.87,28.87,0,0,0,35.57,6.7ZM47.39,28.62v27q-.73.43-1.5.81V43.58h-9V58.84c-.42,0-.85,0-1.27,0l-.72,0V35.57h-9V56.73q-1.05-.49-2-1.07V38.23h-9v7.72a23.3,23.3,0,1,1,41.73,0V28.62Z"/></g></g></svg>