<?xml version="1.0" encoding="UTF-8" standalone="no"?>
<svg width="19px" height="12px" viewBox="0 0 19 12" version="1.1" xmlns="http://www.w3.org/2000/svg" xmlns:xlink="http://www.w3.org/1999/xlink">
    <!-- Generator: Sketch 3.6.1 (26313) - http://www.bohemiancoding.com/sketch -->
    <title>icn-behance-white</title>
    <desc>Created with Sketch.</desc>
    <defs></defs>
    <g id="homepage" stroke="none" stroke-width="1" fill="none" fill-rule="evenodd">
        <g id="homepage-desktop" transform="translate(-686.000000, -6251.000000)" fill="#FFFFFF">
            <g id="footer" transform="translate(0.000000, 6041.000000)">
                <g id="btns" transform="translate(575.000000, 196.000000)">
                    <g id="btn-behance" transform="translate(100.000000, 0.000000)">
                        <path d="M28.9994155,15.2003139 L22,15.2003139 L22,14 L29,14 L29,15.2003139 L28.9994155,15.2003139 L28.9994155,15.2003139 Z M20.2283537,20.6202444 C20.5355355,21.1031947 20.6890381,21.6895864 20.6890381,22.3780294 C20.6890381,23.0899675 20.5159667,23.7286403 20.1638605,24.2927923 C19.9398572,24.6661137 19.6617414,24.9814595 19.3275697,25.2353324 C18.9512123,25.5289317 18.5056352,25.7302545 17.9934004,25.8378209 C17.4795312,25.9455666 16.9233439,26 16.3242201,26 L11,26 L11,14 L16.7094121,14 C18.1485374,14.0237642 19.1688104,14.4469902 19.7712915,15.2781527 C20.1328066,15.7879162 20.3119297,16.3995965 20.3119297,17.110593 C20.3119297,17.8442327 20.1306421,18.4312521 19.7655931,18.8772559 C19.562528,19.1273176 19.2625464,19.3547809 18.8654275,19.5600942 C19.4669367,19.7836117 19.9233363,20.1355902 20.2283537,20.6202444 L20.2283537,20.6202444 Z M13.7264707,18.7309943 L16.2280988,18.7309943 C16.7421888,18.7309943 17.1577722,18.6318126 17.4778526,18.4335388 C17.7977122,18.235579 17.9573107,17.8836902 17.9573107,17.3784553 C17.9573107,16.8202668 17.7459852,16.4497702 17.3223181,16.2714494 C16.9581526,16.1475619 16.4922115,16.0837574 15.9268362,16.0837574 L13.7264707,16.0837574 L13.7264707,18.7309943 L13.7264707,18.7309943 Z M18.1981883,22.2066136 C18.1981883,21.5832754 17.947195,21.1523372 17.4462245,20.9211075 C17.1660768,20.7896873 16.7708132,20.7225199 16.2640117,20.7177222 L13.7264707,20.7177222 L13.7264707,23.9156597 L16.2247416,23.9156597 C16.7379923,23.9156597 17.1352437,23.847461 17.4219291,23.70519 C17.9389346,23.443605 18.1981883,22.9457684 18.1981883,22.2066136 L18.1981883,22.2066136 Z M29.9247245,20.2544109 C29.9822383,20.6470127 30.0082564,21.2166349 29.997699,21.9611703 L23.8320639,21.9611703 C23.8660774,22.8250196 24.1598747,23.4291223 24.717078,23.7748235 C25.0531051,23.9916153 25.4605164,24.0974779 25.9375891,24.0974779 C26.4406358,24.0974779 26.8506533,23.9683892 27.1662723,23.7030378 C27.3382393,23.5623809 27.4899308,23.3638381 27.6210816,23.1133281 L29.8809928,23.1133281 C29.8218005,23.62354 29.5496923,24.1410156 29.0606928,24.6668759 C28.3030748,25.5027015 27.2405278,25.9218025 25.875923,25.9218025 C24.7486178,25.9218025 23.7551139,25.5683444 22.8927607,24.8639839 C22.0332788,24.1571573 21.6016164,23.0108284 21.6016164,21.4206479 C21.6016164,19.9294698 21.9891496,18.7881179 22.7668223,17.9936778 C23.5473664,17.1977581 24.5546966,16.8016142 25.7963667,16.8016142 C26.5323398,16.8016142 27.1957801,16.9351418 27.7876595,17.203587 C28.3776836,17.4723013 28.8653138,17.8952135 29.2493574,18.4764488 C29.5969137,18.9883197 29.8204311,19.5801816 29.9247245,20.2544109 L29.9247245,20.2544109 Z M27.7002845,20.478332 C27.6588499,19.8809999 27.4623666,19.4288981 27.1085818,19.1199193 C26.7577125,18.8100886 26.3193798,18.6545455 25.7963667,18.6545455 C25.2271483,18.6545455 24.7876229,18.8208048 24.475317,19.1475844 C24.1608907,19.4736913 23.9652467,19.9170497 23.885072,20.4783769 L27.7002845,20.4783769 L27.7002845,20.478332 L27.7002845,20.478332 Z" id="icn-behance-white"></path>
                    </g>
                </g>
            </g>
        </g>
    </g>
</svg>