<svg xmlns="http://www.w3.org/2000/svg" viewBox="0 0 99.24 91.89"><defs><style>.cls-1{fill:#996e65;}.cls-2{fill:#c79082;}</style></defs><title>build1_1</title><g id="Layer_2" data-name="Layer 2"><g id="Build"><path class="cls-1" d="M18.59,37.33a19.52,19.52,0,0,1,39-.49L74,22.32,71.77,19c-1.54-1.68-3.46-.12-3.46-.12-8.3,4.62-13-4.23-8.78-9.7,3-3.93-6-7.4-10.84-8.1a2.27,2.27,0,0,0-2.51,1.3C44.81,9.91,38,9.17,34.37,5.8,33.14,4.67,33.59,3,32.91,1.56c-1.82-3.79-10.12.14-14,3.05C17,6,17.76,7.15,17.76,7.15c4.17,6.05-.3,10.26-4.5,10.9-2.8.43-5.46-2-5.46-2C5.36,15,2.45,21.69,1.42,26.16A6.24,6.24,0,0,0,1.6,30c8.26-.58,8.38,12.06,1,12.79-4.76.47-2,8.21.71,12.47,1.5,2.35,3.12,2.49,3.12,2.49,7.54-4.08,10.36.93,10.69,5A7.66,7.66,0,0,1,16,67.44c1.8,5.82,11.59,7.38,11.59,7.38,2.55-13.58,6.71-16.71,7.76-17.3A19.52,19.52,0,0,1,18.59,37.33Z"/><path class="cls-2" d="M20.2,72.22s7.3,3.07,14.16,14a.24.24,0,0,0,.37,0L92.9,28.86S88.12,18.31,78.52,13.93Z"/><path class="cls-2" d="M78.46,14a32.28,32.28,0,0,1,14.36,15l6.42-6.35s-.85-8.86-14.66-15.31Z"/><path class="cls-2" d="M17.69,84.54c1.14.45,3.26,1.73,5.55,5.31l11.42-3.53A28.19,28.19,0,0,0,20.09,72.12l-3,11.22A1,1,0,0,0,17.69,84.54Z"/><path class="cls-2" d="M15.75,91.89l1.31-8.37s5.47,2.36,6.27,6.32Z"/></g></g></svg>