<svg xmlns="http://www.w3.org/2000/svg" viewBox="0 0 170.49 170.49"><defs><style>.cls-1{fill:none;stroke:#383838;stroke-miterlimit:10;stroke-width:5px;}.cls-2{fill:#996e65;}.cls-3{fill:#c79082;}</style></defs><title>build_2</title><g id="Layer_2" data-name="Layer 2"><g id="Layer_9" data-name="Layer 9"><circle class="cls-1" cx="85.24" cy="85.24" r="82.74"/></g><g id="Build"><path class="cls-2" d="M60.68,80.14a19.52,19.52,0,0,1,39-.49l16.4-14.51-2.2-3.29c-1.54-1.68-3.46-.12-3.46-.12-8.3,4.62-13-4.23-8.78-9.7,3-3.93-6-7.4-10.84-8.1a2.27,2.27,0,0,0-2.51,1.3c-1.36,7.51-8.12,6.77-11.8,3.4-1.23-1.12-.78-2.83-1.45-4.23-1.82-3.79-10.12.14-14,3.05C59.12,48.84,59.85,50,59.85,50c4.17,6.05-.3,10.26-4.5,10.9-2.8.43-5.46-2-5.46-2-2.43-1.06-5.35,5.59-6.37,10.07a6.24,6.24,0,0,0,.18,3.87c8.26-.58,8.38,12.06,1,12.79-4.76.47-2,8.21.71,12.47,1.5,2.35,3.12,2.49,3.12,2.49,7.54-4.08,10.36.93,10.69,5a7.66,7.66,0,0,1-1.14,4.63c1.8,5.82,11.59,7.38,11.59,7.38,2.55-13.58,6.71-16.71,7.76-17.3A19.52,19.52,0,0,1,60.68,80.14Z"/><path class="cls-3" d="M62.29,115s7.3,3.07,14.16,14a.24.24,0,0,0,.37,0L135,71.67s-4.78-10.55-14.38-14.93Z"/><path class="cls-3" d="M120.55,56.77a32.28,32.28,0,0,1,14.36,15l6.42-6.35s-.85-8.86-14.66-15.31Z"/><path class="cls-3" d="M59.78,127.35c1.14.45,3.26,1.73,5.55,5.31l11.42-3.53a28.19,28.19,0,0,0-14.57-14.21l-3,11.22A1,1,0,0,0,59.78,127.35Z"/><path class="cls-3" d="M57.84,134.7l1.31-8.37s5.47,2.36,6.27,6.32Z"/><polygon class="cls-3" points="138.33 68.37 131.04 75.55 115.78 61.56 124.92 52.01 138.33 68.37"/></g></g></svg>