<?xml version="1.0" encoding="UTF-8" standalone="no"?>
<svg width="18px" height="18px" viewBox="0 0 18 18" version="1.1" xmlns="http://www.w3.org/2000/svg" xmlns:xlink="http://www.w3.org/1999/xlink">
    <!-- Generator: Sketch 3.6.1 (26313) - http://www.bohemiancoding.com/sketch -->
    <title>icn-dribbble-white</title>
    <desc>Created with Sketch.</desc>
    <defs></defs>
    <g id="homepage" stroke="none" stroke-width="1" fill="none" fill-rule="evenodd">
        <g id="homepage-desktop" transform="translate(-636.000000, -6248.000000)" fill="#FFFFFF">
            <g id="footer" transform="translate(0.000000, 6041.000000)">
                <g id="btns" transform="translate(575.000000, 196.000000)">
                    <g id="btn-dribbble" transform="translate(50.000000, 0.000000)">
                        <path d="M11,20 C11,18.368 11.402,16.862 12.206,15.482 C13.01,14.102 14.102,13.01 15.482,12.206 C16.862,11.402 18.368,11 20,11 C21.632,11 23.138,11.402 24.518,12.206 C25.898,13.01 26.99,14.102 27.794,15.482 C28.598,16.862 29,18.368 29,20 C29,21.632 28.598,23.138 27.794,24.518 C26.99,25.898 25.898,26.99 24.518,27.794 C23.138,28.598 21.632,29 20,29 C18.368,29 16.862,28.598 15.482,27.794 C14.102,26.99 13.01,25.898 12.206,24.518 C11.402,23.138 11,21.632 11,20 L11,20 Z M12.494,20 C12.494,21.872 13.124,23.522 14.384,24.95 C14.96,23.822 15.872,22.748 17.12,21.728 C18.368,20.708 19.586,20.066 20.774,19.802 C20.594,19.382 20.42,19.004 20.252,18.668 C18.188,19.328 15.956,19.658 13.556,19.658 C13.088,19.658 12.74,19.652 12.512,19.64 C12.512,19.688 12.509,19.748 12.503,19.82 C12.497,19.892 12.494,19.952 12.494,20 L12.494,20 Z M12.728,18.146 C12.992,18.17 13.382,18.182 13.898,18.182 C15.902,18.182 17.804,17.912 19.604,17.372 C18.692,15.752 17.69,14.402 16.598,13.322 C15.65,13.802 14.837,14.468 14.159,15.32 C13.481,16.172 13.004,17.114 12.728,18.146 L12.728,18.146 Z M15.41,25.922 C16.766,26.978 18.296,27.506 20,27.506 C20.888,27.506 21.77,27.338 22.646,27.002 C22.406,24.95 21.938,22.964 21.242,21.044 C20.138,21.284 19.025,21.89 17.903,22.862 C16.781,23.834 15.95,24.854 15.41,25.922 L15.41,25.922 Z M18.164,12.746 C19.22,13.838 20.198,15.2 21.098,16.832 C22.73,16.148 23.96,15.278 24.788,14.222 C23.396,13.07 21.8,12.494 20,12.494 C19.388,12.494 18.776,12.578 18.164,12.746 L18.164,12.746 Z M21.746,18.11 C21.926,18.494 22.13,18.98 22.358,19.568 C23.246,19.484 24.212,19.442 25.256,19.442 C26,19.442 26.738,19.46 27.47,19.496 C27.374,17.864 26.786,16.412 25.706,15.14 C24.926,16.304 23.606,17.294 21.746,18.11 L21.746,18.11 Z M22.808,20.828 C23.42,22.604 23.834,24.428 24.05,26.3 C24.998,25.688 25.772,24.902 26.372,23.942 C26.972,22.982 27.332,21.944 27.452,20.828 C26.576,20.768 25.778,20.738 25.058,20.738 C24.398,20.738 23.648,20.768 22.808,20.828 L22.808,20.828 Z" id="icn-dribbble-white"></path>
                    </g>
                </g>
            </g>
        </g>
    </g>
</svg>