<svg xmlns="http://www.w3.org/2000/svg" viewBox="0 0 92.21 91.74"><defs><style>.cls-1{fill:#b582b8;}</style></defs><title>launch1</title><g id="Layer_2" data-name="Layer 2"><g id="Launch"><path class="cls-1" d="M5.8,86.05S2.19,39.94,38.29,54.71C38.29,54.71,53.88,87.53,5.8,86.05Z"/><path class="cls-1" d="M68,35.28c0,.38.06.76.06,1.15A12.6,12.6,0,1,1,55.14,23.85C23.54,9.06,0,39.77,0,39.77c53.59,3.76,52.67,52,52.67,52C79.39,67.27,73.48,45.59,68,35.28Z"/><path class="cls-1" d="M90.05,2S45.23-14.72,20.25,48.79l22.66,23S104.36,51.25,90.05,2ZM55.47,49a12.6,12.6,0,1,1,12.6-12.6A12.6,12.6,0,0,1,55.47,49Z"/></g></g></svg>