<?xml version="1.0" encoding="UTF-8" standalone="no"?>
<svg width="16px" height="16px" viewBox="0 0 16 16" version="1.1" xmlns="http://www.w3.org/2000/svg" xmlns:xlink="http://www.w3.org/1999/xlink">
    <!-- Generator: Sketch 3.6.1 (26313) - http://www.bohemiancoding.com/sketch -->
    <title>icn-linkedin-white</title>
    <desc>Created with Sketch.</desc>
    <defs></defs>
    <g id="homepage" stroke="none" stroke-width="1" fill="none" fill-rule="evenodd">
        <g id="homepage-desktop" transform="translate(-837.000000, -6249.000000)" fill="#eeddce">
            <g id="footer" transform="translate(0.000000, 6041.000000)">
                <g id="btns" transform="translate(575.000000, 196.000000)">
                    <g id="btn-linkedin" transform="translate(250.000000, 0.000000)">
                        <path d="M12,26.8538596 C12,27.4866847 12.5293516,28 13.1823707,28 L26.8176293,28 C27.4706268,28 28,27.4866847 28,26.8538596 L28,13.1461404 C28,12.5131015 27.4706268,12 26.8176293,12 L13.1823707,12 C12.5293516,12 12,12.5131015 12,13.1461404 L12,26.8538596 L12,26.8538596 Z M16.8500952,14.6063416 L16.8500952,21.8312377 L14.4334384,21.8312377 L14.4334384,14.6063416 L16.8500952,14.6063416 L16.8500952,14.6063416 Z M15.641756,22.8176753 C16.4844932,22.8176753 17.0090255,23.3724662 17.0090255,24.0657946 C16.9933196,24.7747298 16.4844932,25.3141277 15.6577416,25.3141277 C14.8310761,25.3141277 14.2905797,24.7747298 14.2905797,24.0657946 C14.2905797,23.3724662 14.8150045,22.8176753 15.6260072,22.8176753 L15.641713,22.8176753 L15.641756,22.8176753 Z M18.1873084,14.6063416 L20.6039437,14.6063416 L20.6039437,18.6410294 C20.6039437,18.8569596 20.6196495,19.072676 20.6834626,19.227034 C20.8581633,19.6584668 21.2558009,20.1052927 21.9234071,20.1052927 C22.7978786,20.1052927 23.1476888,19.4427504 23.1476888,18.4714921 L23.1476888,14.6063416 L25.5641304,14.6063416 L25.5641304,18.7489945 C25.5641304,20.9681583 24.3718844,22.000775 22.7819146,22.000775 C21.4782001,22.000775 20.9058617,21.2766606 20.5878721,20.7834418 L20.6040082,20.7834418 L20.6040082,21.8312377 L18.1873729,21.8312377 C18.2190858,21.1533024 18.1873729,14.6063416 18.1873729,14.6063416 L18.1873084,14.6063416 Z" id="icn-linkedin-white" transform="translate(20.000000, 20.000000) scale(1, -1) translate(-20.000000, -20.000000) "></path>
                    </g>
                </g>
            </g>
        </g>
    </g>
</svg>