<?xml version="1.0" encoding="UTF-8" standalone="no"?>
<svg width="17px" height="15px" viewBox="0 0 17 15" version="1.1" xmlns="http://www.w3.org/2000/svg" xmlns:xlink="http://www.w3.org/1999/xlink">
    <!-- Generator: Sketch 3.6.1 (26313) - http://www.bohemiancoding.com/sketch -->
    <title>icn-medium-white</title>
    <desc>Created with Sketch.</desc>
    <defs></defs>
    <g id="homepage" stroke="none" stroke-width="1" fill="none" fill-rule="evenodd">
        <g id="homepage-desktop" transform="translate(-737.000000, -6250.000000)" fill="#eeddce">
            <g id="footer" transform="translate(0.000000, 6041.000000)">
                <g id="btns" transform="translate(575.000000, 196.000000)">
                    <g id="btn-medium" transform="translate(150.000000, 0.000000)">
                        <g id="icn-medium-white" transform="translate(12.000000, 13.000000)">
                            <path d="M16.8138019,2.75174157 C16.8105943,2.74904494 16.8080283,2.74550562 16.8040189,2.74348315 L16.7982453,2.74044944 L11.7351321,0.0800561798 C11.7009717,0.0620224719 11.6650472,0.0498876404 11.6286415,0.0401123596 C11.582934,0.0278089888 11.5362642,0.0202247191 11.489434,0.0202247191 C11.2955377,0.0202247191 11.1026038,0.12252809 10.9980377,0.300842697 L8.08317925,5.27882022 L11.7412264,11.5255618 L16.8293585,2.83668539 C16.8461981,2.80769663 16.8381792,2.77196629 16.8138019,2.75174157" id="Fill-53"></path>
                            <path d="M6.47764151,4.14488764 L6.47764151,9.81134831 L11.2703585,12.3296629 L6.47764151,4.14488764" id="Fill-54"></path>
                            <path d="M11.9904528,12.7080337 L15.9355755,14.7808989 C16.4489434,15.0507303 16.8651226,14.8617978 16.8651226,14.3592135 L16.8651226,4.38353933 L11.9904528,12.7080337" id="Fill-55"></path>
                            <path d="M5.64560377,2.75983146 L0.700688679,0.161460674 C0.611358491,0.114606742 0.526358491,0.0923595506 0.449377358,0.0923595506 C0.232867925,0.0923595506 0.080990566,0.268483146 0.080990566,0.563932584 L0.080990566,11.7835955 C0.080990566,12.0839326 0.290122642,12.4395506 0.545764151,12.5738764 L4.90113208,14.8623034 C5.01275472,14.9209551 5.11908491,14.948764 5.21515094,14.948764 C5.48586792,14.948764 5.67575472,14.7286517 5.67575472,14.3592135 L5.67575472,2.81089888 C5.67575472,2.78932584 5.66404717,2.7694382 5.64560377,2.75983146" id="Fill-56"></path>
                        </g>
                    </g>
                </g>
            </g>
        </g>
    </g>
</svg>