<?xml version="1.0" encoding="UTF-8" standalone="no"?>
<svg width="18px" height="14px" viewBox="0 0 18 14" version="1.1" xmlns="http://www.w3.org/2000/svg" xmlns:xlink="http://www.w3.org/1999/xlink">
    <!-- Generator: Sketch 3.6.1 (26313) - http://www.bohemiancoding.com/sketch -->
    <title>icn-twitter-white</title>
    <desc>Created with Sketch.</desc>
    <defs></defs>
    <g id="homepage" stroke="none" stroke-width="1" fill="none" fill-rule="evenodd">
        <g id="homepage-desktop" transform="translate(-786.000000, -6250.000000)" fill="#FFFFFF">
            <g id="footer" transform="translate(0.000000, 6041.000000)">
                <g id="btns" transform="translate(575.000000, 196.000000)">
                    <g id="btn-twitter" transform="translate(200.000000, 0.000000)">
                        <path d="M29,25.3429805 C28.3380654,25.0618241 27.6262256,24.8717987 26.87936,24.7861877 C27.6416317,25.2237956 28.2269309,25.9163965 28.5026602,26.741516 C27.7892403,26.3363352 26.9991851,26.0424373 26.1576446,25.8840198 C25.4843858,26.5707478 24.5246003,27 23.4625027,27 C21.4229751,27 19.7699162,25.4177153 19.7699162,23.4657896 C19.7699162,23.1886787 19.8022689,22.9188522 19.8654865,22.660343 C16.7963852,22.8075441 14.0754349,24.2150276 12.2540942,26.353097 C11.9362155,25.83134 11.7541341,25.2242997 11.7541341,24.5764766 C11.7541341,23.3501209 12.4057848,22.2685212 13.3969223,21.634473 C12.7916215,21.6525833 12.2221365,21.8116436 11.7242437,22.076555 C11.7236774,22.0616836 11.7236774,22.0469635 11.7236774,22.032193 C11.7236774,20.319469 12.9967198,18.8913168 14.6858579,18.566416 C14.3762616,18.4856319 14.0501136,18.4429083 13.7132999,18.4429083 C13.4751114,18.4429083 13.2441651,18.4644717 13.0183015,18.5059224 C13.4885292,17.1018416 14.8520197,16.0798785 16.4682094,16.0512701 C15.2033573,15.1031595 13.6113696,14.5384269 11.8811486,14.5384269 C11.5832846,14.5384269 11.2891207,14.5552139 11,14.587704 C12.6348877,13.5849223 14.5756584,13 16.6612726,13 C23.4533776,13 27.167164,18.3853134 27.167164,23.0561726 C27.167164,23.2093347 27.1634771,23.3614508 27.1567616,23.513025 C27.8779504,24.0117314 28.5039375,24.6340464 28.9993021,25.3429553" id="icn-twitter-white" transform="translate(20.000000, 20.000000) scale(-1, 1) rotate(-180.000000) translate(-20.000000, -20.000000) "></path>
                    </g>
                </g>
            </g>
        </g>
    </g>
</svg>