<svg xmlns="http://www.w3.org/2000/svg" viewBox="0 0 696.81 376.4"><defs><style>.cls-1{fill:#b484b7;}</style></defs><title>worldmap</title><g id="Layer_2" data-name="Layer 2"><g id="objects"><path class="cls-1" d="M313.94,104.07c-.14.65.26.95.92.86-.57,1.2-1.67-.16-2.18-.75.06-.12.12-.24.23-.4l.48.39c0-.18,0-.36,0-.54C313.75,103.63,313.8,103.8,313.94,104.07ZM138.5,50.67c-.22.23-.62.25-.85.47-.74-1.68-1.13-1.35-2.84-1.38l2.6-1.73c-.31-.11-.54-.46-.83-.57l1.29-.79c-1-.52-1.4-.94-2.42-.59s-1.49.65-2.54.14-1.55-.12-2.62-.07c-.45,0-1.1,1.1-1.46,1.45.44.19,2.42.72,2.42,1.19,0,1,0,2.28-1.37,2-.64-.12-1.41-1.63-2.06-1.41s-1.74.87-.87,1.57c1.63,1.31,3.53,1.74,4.87,3.43.61.77,1.1,1.78,2,2,.75.16,2-.46,1.68-1.42,1.27.56,4.79-1.8,2.48-2.61a6.34,6.34,0,0,1,1-.39Zm173,53.36c.07.27-.33.95.27,1.42a2.23,2.23,0,0,1,.32-1.65,2.42,2.42,0,0,0-.8-.1C311.25,104,311.38,103.9,311.51,104ZM176.37,70.94c.66.59,2.55,1.69,3.29.51s.15-1.79.61-3C178.73,66.3,174.64,69.37,176.37,70.94Zm11.43-14.29c-.54-1.77-2.79-1.5-4-1.06-.74.26-2.54-2.58-3.28-3.29a6.22,6.22,0,0,0-4-1.58c-.59.08-1.89,0-2.34.4s-1.33,1.59-1.69,1.38c-1.26-.76-1.16-.82-2.22.24-.59.59-1.43.6-.88-.41.64-1.19.8-1.23.2-2.45-.42-.87-.74-.76-1.24-1.44s-.26-1.71-1.09-1.75a6.07,6.07,0,0,0-2.18-.1,22.67,22.67,0,0,1-4.45,1.52c.15-.56.28-1.12.42-1.69a8.58,8.58,0,0,0-5.5.67,5.69,5.69,0,0,0-3.31,3.59c-.26.69-1.18,2.19-1.07,2.92.07.34.29,2.6.51,2.63,2.1.21,3.48,0,5,1.61l-4.58-.4A6.79,6.79,0,0,0,155,60.13c.86.5,1.27-.17,2-.24,1.6-.15.44.29,1.3,1.08a5.07,5.07,0,0,0,2.17.58c1.47.07,3.43-.26,4.8.27l1.43.55c.3.11.5-.64.74-.61.71.08.91,1.09,1.7.8L167.3,60.9c2.34.66,3.79,1.22,6.15.65-.44-1-.57-1.45-1.57-1.73,1.24-1.16,1.13.66,2,1.08.31.15,1.13-.36,1.21.1s.21,1,.3,1.48c1.07-1.12,3,1.37,3.85,2.09-1.63.48-2,.21-2,2.08l2.24-.85c1-.39.9-.48,1.47.51.73,1.28,2.34.89,3.12,2.31.5.94,1,1.88,1.53,2.81.24.45-.3.68-.62,1l-3.62,3.64c.37.28,1.91,1,1.63,1.8-.13.33-2.32.66-2.67.77-1.41.4-3.07-.15-4.52-.33.18,1-1.12,1.24-1.57,2.06-.34.61.69,1.85,1.34,1.82,1-.05,2.18.18,2.94-.53s1.69-.11,2.58.1c0-.3.17-.64.13-.93.61-.09,1,.26,1,.93,1.56-1,1.53-.08,2.54,1.48.55.85,1.59.76,2.49,1.25-.52.26-1.06.53-1.57.8a4.26,4.26,0,0,0,2.48.93l-.33.51,3,.76c.42.12.38,1,1.1,1.18l5.86,1.51c.12-.94.4-1.29-.31-1.79l-2.17-1.55c-.45-.31-1.54-.22-1.83-.71-.39-.69-.78-1.38-1.18-2.07l2.09.94c-.16-.3-.17-.7-.33-1l3.58,2.24c.65.41,1.75,1.86,2.17,1.72l-.46-1.22c.21.13.5.1.72.21.45-1.07-1.05-1.35-.46-2.38l1,1.3a9.22,9.22,0,0,0-.33-2.6c-.41-.68-1.21-.37-1.41-1.29-.22-1.1-.11-1.36-1-1.78-.74-.34-1.35-.89-1.6.34-.26-.8-.52-1.58-.77-2.37-.31-.94-.5-.54-1.32-.23-.18-.55-.35-1.1-.53-1.65l1.63.21c-.05-1.07-1.2-1-.55-2,.44-.66.95-.57,1.67-.17s1.22,1.57,1.89,1.72c.48.11,1.54-.55,2-.72.34,1.19-.81,1.3-1.56,1.65a9.34,9.34,0,0,0,3.79,3,8.28,8.28,0,0,0-.06-3.38c1.43,1,2,.22,3.52-.57l-1.5-.72c.44-.56,1.46-.11,2.09,0,.16-1.4.67-2.24-.65-2.81-.8-.34-2.33.06-3.2.07l.84-1.3c-1.29-.19-1.88-.13-2.79-1.13a4.43,4.43,0,0,0-2.13-1.57c-2.13-.81-4.23-1.61-6.3-2.55l1.76-.21c-.09-.55-.18-1.1-.26-1.66l2.48.51c-.48-1.35-.38-1.31-1.66-1.08a3.89,3.89,0,0,1-2-.51,3.64,3.64,0,0,1,2.87-.75c0-1.05-1.1-1.55-1.79-2-.18,1.06-1.23,1.27-2,1.65.28-1.09-.54-.91-1.27-1,.92-.29,2.49-.3,2.83-1.45-.82-.42-4.92-3.1-5.42-2-.4.92-1.8,1.86-2.23.69C185.46,57.74,187.37,56.92,187.81,56.65Zm-61.2-19.4a1.78,1.78,0,0,0-1.27.6H127c-1.76,1.22.71,1.3,1.55,1.12,1.3-.28,2.62-.39,3.94-.55a1,1,0,0,1-1.08.64l.33.26a1.36,1.36,0,0,0-1.34.59,3.43,3.43,0,0,1,1.55.38,6.16,6.16,0,0,0-1,.13c.11.87.79.8,1.48,1,.38.13.57-.51.93-.47,1,.06,2.45.54,3.33-.34-.34-.16-.59-.53-.92-.69a1.17,1.17,0,0,0,.49-1.11c.18.19.48.26.67.45.16-.75-.32-1-.37-1.6s.27-1.13.24-1.64a3.32,3.32,0,0,0-.87-1.47c-.41-.16-1.25-.72-1.64-.48-1.2.73-2.13-.29-3.61.26s1.07.73,1.24,1.46c-.29-.07-.61.07-.89,0l1.24,1.68c-.56-.32-4.65-4.22-4.46-1.53L129,36c-.89.36-.7,1.29.25,1C129,37.88,127.41,37.12,126.6,37.25Zm.08,26c.27-1.63,1.12-1.19,2-.48.08-.24.32-.43.4-.68,1.21,1.86,1-.59,1-1.44-1.33.27-2.89-.68-4.26-1.52-.51-.31-2.46-1.05-2.71-1.65s.45-1.5.12-2.3c-.78-1.9-1.27-4.76-3-5.73-.74-.41-1.39-1.48-1.95-.63-.25.39-1.6-.58-2-.78.47.74-.41,1-.24,1.44s.37,1,.55,1.54q.6,1.73,1.22,3.44c-.81.32-1.24.88-1.56-.07s-.73-2.11-1.07-3.17c-.5-1.46-3-1.53-4-1.37l1.83,1.92c-.41-.11-1.79-.7-2-.32-.57,1-.63.89-1.69.89l.83-1.11c-.72-.34-2.75-1.82-3.47-1.63-.48.12-.64,1.31-1.19,1.34l-1.73.14c.94-.77,1.91-1.8.55-2.59-1-.59-1.44-.17-2.55.25A18.55,18.55,0,0,0,95.77,52c.31.06.57.37.88.43-.78.72-2,1.38-1.83,2.69h2c-.14.21-.17.54-.31.76l4.13-.14-4.3,1.92c.86.86,1.11,1.35,2.23,1.34l4.36-.06a22.19,22.19,0,0,1,6,1c1.46.37-.91.79-1.42.79a27,27,0,0,1-3.38-.44c-1.76-.23-4,.75-5.76,1.12,1,3.5,4.38,2.93,7.18,3.08-.17,1.75.23,2.67,1.83,2.55l5.92-.47c1.34-.09,1.83-1,3.18-1.27a3.1,3.1,0,0,0,1.83-.76c.56-.46.59-1.18,1.39-.92-.12.23-.09.58-.22.81l2.83.58c-.18.12-.33.31-.52.43,1.59,0,3.08.88,4.67.72.41,0,2-.55,2-1,0-.72-1-.55-.34-1.47-1.07-.3-1.75.32-2.49,1.06,0-.76.18-1.4-.4-2a3.69,3.69,0,0,1,.78.1A3.64,3.64,0,0,0,126.69,63.27Zm6.06,2a3.16,3.16,0,0,0,.8.7c.15-.36.29-.26.45-.46a.88.88,0,0,0,.83.79c.06-.15.11-.3.16-.45.4,1.18,2.25,1.3,3.23,1.48s2-.86,2.94-1.44a29.64,29.64,0,0,0-3.67-2.9c-.74-.5-1.34-1.34-2-.64-.51.51-1.36,1.15-.48,1.79l-.46.11C134.06,65.12,133.22,64.31,132.74,65.23Zm179.67,37.61L312,103l.21.39c.48-.44.68-.71,1.24-.84l-.28-.37c.82-.09.72-1.21.34-1C312.95,101.45,311.25,102,312.41,102.85ZM170.26,83.9a3.05,3.05,0,0,0-3.09-.82c1.38-1.37-2.2-3.15-2.88-3.62-.53-.36-1.36-.19-1.79-.66-.66-.73-.88-1-1.6,0a2.51,2.51,0,0,1-.4-.82c1.43-.25,1-2.2-.24-1.67s-1.19,1.62-1.56,3c-.16.57-.24,1.16-.35,1.74-.08.41.34,1.07.19,1.43s-1.61,1.47-2,2a23.27,23.27,0,0,1,2.87-.52c.28.17.45,2.54,1,2.18.76-.54,1.38-1.65,2.05-1.89,1.13-.42,1-1.34,2.15-1.78-.25,1.84,2.85,2.2,4,2.54ZM147.34,42.09c.45,1,1.74.09,2.34-.32.47,1,.43,1.14,1.42,1.23.83.08,1.56.4,1.75-.79.14.26.44.45.57.72,0-.41.2-.83.21-1.24,1.06.44-.07,1.74,1.13,1.8l3.58.16c-.05-.27,0-.6,0-.86.64.86,2.26,1.21,2.61-.1.32,1.31,2.15.47,3,.33-.09-.49-.17-1-.26-1.47,1.24,0,.57,1.35,1.46,1.66a4.07,4.07,0,0,0,2.17.43c.48-.08,2.72-.12,2.85-.64.33-1.12.7-1,1.74-1.37a3,3,0,0,0-1.7-.67l1.44-1.06c-1.87-1.58-4.19-2.81-6.59-2-1,.34-1.88-.19-3,.2a22.62,22.62,0,0,1-3.15.87c.22.15.41.4.65.52-1.09-.24-2.64-.95-3.74-.81-.33,0-1,.67-1.29.48-.52-.34-1-.68-1.59-1-.28-.19-2.49-1.43-2.51-1.49-.2-.71,2,.15,2.22-.87l-1.87-.54c-.85-.24-.45-.68-1.09-1.1-1.11-.71-2.29.28-3.45,0s-1.75-1.26-2.83-1.42-2.66-.75-3.83-.42c-1.92.54-1.34,1.33-.09,2.56s1.93,1,3.44.77c1.3-.18,1.91-.66,2.84.44.57.66,2.1,1.92,1.13,2.86C146.35,40.44,146.68,40.69,147.34,42.09ZM181.05,69c-.73.82,2.26.81,2.53.82A1.45,1.45,0,0,0,181.05,69ZM153.59,10.59,150.78,13c1.58,1.13,3.25.22,5.11.15A25,25,0,0,0,161,12a10.74,10.74,0,0,1-4.38,1.51,10.34,10.34,0,0,0-4.12.79c1.62.45,3.25,1.48,4.72.5a8,8,0,0,1,4.88-1.58,9.55,9.55,0,0,0-4.37,2.38,32.13,32.13,0,0,0,4.09.43c1.12,0,1.24.25,1.38-1,.05-.43,1.28-.57,1.65-.68-.22.21-.37.51-.59.72l2.62-.8-2,1.65,3.24-.62c.67-.13,2.31-.09,2.84-.6a15.76,15.76,0,0,1,5.15-3.17c-.87.8-1.74,1.59-2.61,2.38l1.63.73c-3.48.92-6.92,1.65-10.45,2.3l3.52,3.24c-1.49-.9-3.32-2.59-5-3-.28-.07-5-.07-5-.2-1.45,2.79,1.36,2.6,2.89,3.66a12.19,12.19,0,0,1,3.47,4.18c-2.22-1.18-5.82-1.53-7.8.47-1.83,1.85-.15,2,1.58,2.33,1.21.27,2.15-1.27,3-2.12-.65,2-2.37,3.1-.29,4.59,1.65,1.18,3.6-1.25,4.56-2.28-1.58,2.24-2.62,3.81-5.4,3.09-1.13-.3-1.23-1.86-2.22-2a5.72,5.72,0,0,0-3.36.21c.83,1.51.83,1.66,2.44,1.82-1.11,1.15-1.78.81-3.12,1.38-.46.21-1.57.42-1.89.82s.54.79-.12,1.21c.87,1.14,1.16.32,1.91-.54,0,1.33,1.82,2.26,2.31.77.22,1.29,1,.6,1.89.68a25.27,25.27,0,0,0,2.6.23c1,0,1.27-.95,2-.69s1.72.68,1.47-.55c.42.95,2.27,1.82,2.36.24.81.88,1.26-.23,1.8.21.81.63.47,1,.22,2l3.46-1.05c.35-.12.51-.76.84-.89.12,0,.46.5.88.35s1.23-.23,1.19-.6,0-1.36-.35-1.58c-.63-.38-.78-.65-1.4-.28s-.74.68-1.23-.06,1.68-2.17,2.06-2.52c1.16-1-.68-1.54-.11-2s2,.68,2.69.43a4.12,4.12,0,0,0,2.61-1.95c-.66-.36-1.31-.73-2-1.07l3.46-.44c.14-1.43-2.9-1.54-3.86-1.79h4c.32-1.6-3.5-1.15-4.5-1.24,2.42-.28,4.84-.52,7.25-1-.13-.44-.26-.87-.39-1.29.86.22,2,.86,2.82.43a7.85,7.85,0,0,0,2.67-2.1c-.88,0-1.74-.09-2.61-.14l4.19-.86c1.2-.24,2.67-1.63,3.73-2.28,1.44-.89,6.15-2.11,6.25-3.85L189.63,13l6.53-1.94-3.79-.64,8.39-.63c2-.14,4.51-2.26,6.33-3.21a44.37,44.37,0,0,0-7.27-1.93c-2.21-.4-4.21.31-6.4.78,1.19-.68,2.38-1.34,3.57-2a49.79,49.79,0,0,0-6.79-1c-2.09,0-4.42.7-6.52,1l.87,1.73c-1-.69-2.35-2.09-3.55-2.12L175.75,3l3.14,2.59L175.2,4c-.67-.27-2.72-.84-3.37-.6s-.61.84-1.19.88l-2.41.15c-.9.06-1.88,1.35-2.58,1.95l6.19,3.34L165,8.06c-1-.26-2.15-1.4-3-2-.68-.45-1.82-.22-2.58-.25.17.46.35.91.54,1.36l-2.61.07,1.83.87c-2.31.14-5.38-1.17-6.6,1.51-1.58-1.37-3.56-.31-5.23.65l3.21,1.51ZM130.11,29.19c-.68-.87-1.53-.73-2.44-.55s-.39.95.36.93S129.34,29,130.11,29.19ZM171,91.34c.55-.53,2.29-2.29.61-2.83-.7-.22-1.4.62-1.46,1.22C170.07,90.6,170.43,90.74,171,91.34ZM306.94,121c-.22.12-.36.42-.58.54,1.78,1.5,4.2-1.29,5.91-1.76.58-.16,1,.37,1.23-.35s.4-1.3.6-2a3,3,0,0,0-.76-2.52c1.2-.84,1.58-.86,1.7-2.41-.61.2-.78-.93-1.25-1.48-.3-.34-1.4.16-1.82.26.11-.17.2-.34.29-.5-1.36-.81-2.71.71-3.37,1.83.44.17.88.32,1.32.47-.56.43-.84.88-1.5.71-.44-.12-1.06-.47-1.48-.23-.75.41-.53.5-.28,1.37.12.42-.56.86-.83,1.13a5.89,5.89,0,0,0,2.25.69,12.79,12.79,0,0,0-1.83,1.94,4.29,4.29,0,0,1,2.34-.25c-.53.11-1.6.1-1.92.56a1.88,1.88,0,0,1-1.29.84c.32,0,.62.24.95.29a8.6,8.6,0,0,1-1,.5ZM163,88.51c.08.22.2,1,.46.95,1.61-.14,3.46-.84,3.71-2.87l-1.22,0a4.23,4.23,0,0,0-2.45.87C163,87.87,162.76,87.8,163,88.51ZM144.47,40.9c-.2-1.07-1.41-2.7-2.56-2.32-.67.2-4,.79-3.48,2.48.24.68,2.85,1.61,3.49,2C143.42,42.81,144.86,43,144.47,40.9ZM122.11,24.22c1,.11,1.32-1.39,2.22-.49-.2.13-.33.37-.53.49l1.53.28c.17,1.71-2.18.38-3.22,1.06.32,2.94,3.63.07,4.22.77s1.88.61,2.81.74,1,.64,1.49,1.53,4.5.68,2.48-1.61c-.3-.33-1-.8-.87-1.28.19-.65.27-.61-.22-1-.87-.71-1.12-.57-2.2-.38.36-2.15-2.32-1.06-3-.67-.55-1.28-1.21-2.28-2.71-2.07-1.67.24-2.56-.12-3.17,1.64l1.7-.06A8.94,8.94,0,0,0,122.11,24.22Zm.46,7.74c.47.54,1-.3.55-.89A7.36,7.36,0,0,0,122,30c-.61-.46-1.1-1.11-1.89-.75.14.55.29,1.1.43,1.66C121.11,31.35,122.23,31.55,122.57,32Zm11.66-13.54c-.46-1.16-3.31-.85-2.45.77C133,19.67,135.22,20.9,134.23,18.41Zm3.73,9c-.55.27-1.16.16-1.72.41.48.21,1.36,1.14,1.54,1.14a6.69,6.69,0,0,0,1.75-.38c.61-.17,1.76-.18,2.12-.79s-.51-.84.28-1.62c-.7-.25-1.67-.24-2.24-.48s-1.07-.85-1.7-1.1c-.9-.38-4.13-1-2.33.91l-.61.1C135.48,27.38,137,26.51,138,27.45Zm-29.43.64c-1.78.29-2.58-.06-2.21,2.1.8,0,1.49,1.14,2.17,1l3.25-.82c.77-.2.37-.48.56-1s-1.21-.08-1.48-.59c.91-.2,1.79-.22,2.44-1.05C111.91,27.06,109.87,27.87,108.53,28.1Zm3.28,7.48,2.11,1.29-1.43.58c.45.2,2.29.66,2.22,1.19-.17,1.13-1.24.59-2.18.54-.48,0-2.46.18-2.59-.38-.29-1.26-.44-1.14-1.61-1l.57-.32c-.76-.61-1.72-1.86-2.68-1.7-1.78.32-1.13-.38-2.57-.95-.28-.1-2.5.09-2.52.63s1.79.75,2.23.87a7.16,7.16,0,0,0-3.87.3v.72c.92.54,2.55.12,3.59.09-.47.32-4.67.08-4.57,1.12s3.64-.11,4.1-.22c-1.36,1.13-4.17.31-5,1.94a4.25,4.25,0,0,0,2.85.22c0,.19-.09.38-.14.57a11.36,11.36,0,0,0,1.45.39c-.35-1,.78-.84,1,.14,1.23-.75,1.45-.85,1.84-2.34.91.3.54,1,.38,1.76.71-.06,2.35.27,2.44-.73.44,1,2.15.51,2.89,0-1.43,1.51-4.36,1.77-6.37,2.46,2.43,1.57,3.43,1.06,6,.12,1.45-.51,2.9-1,4.35-1.57.84-.3,1.3.49,2.11.44.4,0,.46-.74,1.12-.74h2.08c.9,0,1.3-1.09,1.52-2.05.28-1.21.16-2.33-1.43-2.12-1.92.27-.32.83-1.07,1.8-.29-1-.62-1.15-1.46-1.41-.54-.17-.65-1.19-1.12-1.56-1-.75-.21-3-2.15-2.2A9,9,0,0,1,111.81,35.58Zm26.4-17.43c.28,2.26,2.75,2.26,4.25,1.66-.51.79-1.23.72-2,.84s-.41.89.17.82.52,1,1.21.49c.49-.38.8-.76,1.42-.53,0,.16-.06.33-.09.49.69.37.93-.21,1.51-.49.17-.09.84.74.64-.36,1.1.45,3-.12,3.73.58l-2.74.35c1.35.56,2.72.26,4.14.19-2.6.49-5,.29-7.45,1.29a6.83,6.83,0,0,0,2.36.89l-1.31.1c.72,1.09,2.72.71,3.95,1l-2.48.29c1.09,1.74,3.54,1.42,5.19,1.51a1.22,1.22,0,0,0-.85-.9c1.1,0,1.57.43,2.45,1.12L151.08,25c.81.81,1.63,1.6,2.45,2.39.36-.95.64-1.4,0-2.3,3.43,1.84-.31-1.45,2-2.12a3,3,0,0,0,.39,2c.62-.54,1.59-.88,1.14-1.87.6.52,3-.78,4-1.08a6.94,6.94,0,0,0-1.63-1.76c-.09.32-.38.58-.45.9-.13-1.71-2-.68-2.77-.36.89-1.71,1.33-2.48-.79-2.73,1.32-1.14-.54-2.57-1.73-1.55l.78,1.36a1.8,1.8,0,0,1-1.73-.83c-.23-.38.39-1.54-.61-1.24a2.61,2.61,0,0,1-2.78-1c-1.18-1.34-1.83-2.43-3.47-2.85-1-.26-2.59-.82-3.33.25.91.33,1.91,0,2.71.47-.84,1.47-3.79-.65-4.69,1.69.73.25,1.83.11,2.41.61-.7.15-4.06.28-3,1.37l-1.57.57a9.25,9.25,0,0,0,2.31.44l-.42.24c.85.4,1.75-.53,2.51,0-.29.06-.54.36-.82.43.2.16.35.41.55.54a9.57,9.57,0,0,1-.94-.25Zm-15,18.13c.68.79,3.82,1,3.53-.61C125.93,35.53,123.87,35.58,123.25,36.28Zm-25.49.19c-.58.16-3.69,1.38-3.35,2.26.25.64,1.75.37,2.08-.06S98,37.26,97.76,36.47Zm215.84,69-.25.16.22.25C313.54,105.79,313.73,105.74,313.6,105.52ZM118.29,47.76a3.79,3.79,0,0,1,1.86,1.17c.65.59,1,1.29,1.84.93a2.5,2.5,0,0,0,1.1-1.93c0-.93-.6-1-1.34-1.49C120.45,46.69,118.86,46.21,118.29,47.76Zm6.65-7.11c-.5-1.37-1.16-1.19-2.25-.81C121.42,41.63,124.29,40.94,124.95,40.65Zm-2.14-6.31c.31.63.47.59.55,1.18.9.07,2,.32,2.72-.43l-1.29-.82A2.33,2.33,0,0,0,122.81,34.34Zm21.42-3.75c.31-.43.6-.86.91-1.29a7.59,7.59,0,0,0-6.05.33C139.51,31.13,143.08,30.54,144.23,30.59ZM170.3,49.93a5,5,0,0,0,1.33.8c.66.39,2.76-.52,3.52-.69a12.89,12.89,0,0,1,3.11.13,10.06,10.06,0,0,0-4-3.22c-.58-.31-1.43.15-2.06-.08L170,46a1.31,1.31,0,0,0-.32,2.46C170.54,49,169.8,49.24,170.3,49.93ZM149,30.07c-.72.66.75,1.23,1.1,1.41.66.35,1.28-.05,2-.26C152,29.72,149.93,29.26,149,30.07Zm1.31,3.37c-.7.54.95,1.6,1.53,1.36-.15-.21-.18-.57-.29-.72C152.45,33.49,150.87,33,150.36,33.44Zm461.81,9.25a15.81,15.81,0,0,0,6-.69,2.83,2.83,0,0,0,.21-1.41c-.12-.23-1.32-.41-1.55-.47a3.71,3.71,0,0,0-2.8.18c.07-.26,0-.57,0-.82-1,0-2-.34-2.91.43-.07-2.05-2.44-.76-2.18.48C609.13,41,611.61,42.28,612.18,42.68ZM427.07,56.47a6.66,6.66,0,0,0,4.34,2.28c1.49.1,4.62,1.06,5.93,0-2.08-1.44-3.79-2.67-3.86-5.6-.05-2.3,2.14-4.25,3.43-5.76.78-.92,1.48-1.91,2.21-2.87s2.2-1.41,3.08-2c1.7-1.08,2.85-2.46,4.76-3,2.3-.71,4.62-1.36,6.89-2.15,1.14-.39,5.73-1.2,5.92-3.26.22-2.48-4.49-1.41-5.34-.73-1.88,1.54-4,1.85-6.29,2.5a13.4,13.4,0,0,0-5.44,1c-1.5.62-3.95,1.06-5.18,2.17a49.3,49.3,0,0,0-4.1,3.87l-2.69,3c-.69.78-.3,1.28-.06,2.35.09.42-1.86,1.51-2.2,1.75-1.24.89-.09,1-.7,2.13-.42.86-1.73.47-1.81,1.63C425.84,55.29,426,55.32,427.07,56.47Zm4.13-39.59c-2.15-.79-2.22-.67-4.05.82l2.62.34Zm8.14-5.09-1.53-1.34,3.1-.77c-1.72-.31-2.39-.68-3.83.34-1.14.82-2.28,1.6-3.45,2.34l3.18.44Zm0,48.65c.31.79,2.75,2.82,3.63,2.07s-2.13-2.43-2.53-2.75Zm2.74-42c-.41-.9-1.31-.32-2-.15A8.85,8.85,0,0,0,441,19Zm-3.75-4.32a11.68,11.68,0,0,0-3.9-.88c-1.92.08-2.59-.17-3.88,1.37l3.78,1A7.81,7.81,0,0,0,438.29,14.14ZM419.23,15.3l-2.79,1.86a12.32,12.32,0,0,0,4.57.72c-.14-.51-.28-1-.44-1.53l5.48-1.29c-1-.67-1.66-1.26-2.87-.94s-2.25.8-3.41.52c-2.46-.6-4.11.14-6.56.9l2.53.67Zm1,50.77c.63.62,2.53-1.06,3-1.4a4.46,4.46,0,0,0-2.44-1.25C419.36,64,418.95,64.8,420.23,66.06ZM367.68,61A6.2,6.2,0,0,0,372,58.64c-.86,0-.88.77-1.56,1.12a6.81,6.81,0,0,1-2.24.22C368.59,60.53,368.25,60.85,367.68,61Zm-259-34.54c.93.53.82-.21,1.57-.31.59-.07,4,1.23,3.62-.55-.26-1.08-3-1-3.7-.8-1.17.37-3.33.53-4.11,1.66.15.11.3.21.46.31C107.15,26.6,108.1,26.09,108.69,26.44ZM439.3,16.06c-.48,0-5.51.21-5,1.61s3.89.33,5.1.11c-.2-.17-.28-.49-.48-.67l1.83-.29C440.27,16.57,439.78,16.32,439.3,16.06ZM592.85,41.74c.68.45,1.38,1.17,2.18,1.11,1.35-.12,1.3-.19,1.87-1.55,1,1.62,2.54.26,4-.31.41-.16.93,1.29,1.38,1.2l2.21-.45-.78-1.3c.94.4,1.27.74,2.14.2a5.44,5.44,0,0,0,1.78-1.46l-5.94-2.26c-.52-.2-1.41-.8-2-.56-1,.44-.51,1.12-.34,2.21-1.39-.6-4.23-3.28-5.6-2.16s-1.94,1.35-2.37,3C591.21,40.28,592.32,41.07,592.85,41.74ZM313.62,110c.5-.16.57-.56.3-1.07a1.94,1.94,0,0,0-.66.46C313.79,109.5,313.46,109.74,313.62,110ZM600.51,48.08c1.28,1.08,2.17.81,3.79.76-.36-1.48-.48-1.52-1.69-2.27-.29-.16-2.38-1.1-2.39-1.17-.12-1-.93-2-2.1-1.22-1.37.92.28,1.85.88,2.3l-2.36,1.63C597.7,48,599.64,47.34,600.51,48.08ZM452,14.33c1.19-.27.8-.77.74-2.06-.45,0-1.5-.12-1.87.14s-.37,1.18-.74,1.39c-1,.57-2-.91-2.78.58a5.88,5.88,0,0,0,.83.81Zm-10.54,1.86c.7,0,1.09-.21,1.54.37.79,1,2.75-.44,3.46-1.22s-1-2.26-1.91-2a18.54,18.54,0,0,0-4,1.5C440.73,15.48,440.73,16.21,441.43,16.19Zm77.06,11.43c1.06,1.45,3.74-.38,5-.85.41-.13,1.09.67,1.69.57l3.38-.6a3.61,3.61,0,0,0,1.89-1c.43-.34-.48-1.68-1-1.72-1.1-.11-1.3-.58-2.07-1.48-.32-.38-1.79,0-2.27,0l1-.86c-1.55-.57-2.66-.53-3.8.7a23.08,23.08,0,0,0-2.81,4.09C519.16,26.92,518.82,27.27,518.49,27.63Zm-14.67-7.39c1.12-.07,3.32-.79,4.08.21,1,1.27,1.57,2.92,3.12,2.77a8,8,0,0,1,4.54.42c1.6.61,2.32.27,4-.23-.16-.52-.74-1.64-.55-2.16.26-.69,1-1.6.26-2-1.5-.83-2.35-.11-3.91.5l1.56-1.67c-.74-.17-2.52-.12-2.69-1-.35-1.89-.34-1.69,1.34-2.18-1.08-.77-3.08-2.93-4.35-3-1.47-.05-.51.82-1.37,1.09s-2,.61-2.94.9-1,.7-1.31,2c-.12.44-1.83.61-2.25.73s-.9,1.82-1.1,2.27C502.1,19.13,503.56,20,503.82,20.23Zm171,38c.52-.15,1,.22,1.46.12,1.67-.33,3-.29,4.19-1.61-.69-.62-1.23-1.37-2.13-1.42l-3.54-.16c-.82,0-2.05.84-2.83,1.16-.21.08.41,2.23.48,2.58ZM357.26,64.28c-.66.29-1.59.35-1.32,1.36.38-.29.76-.6,1.12-.9C357.14,64.59,357.2,64.43,357.26,64.28Zm-5.05,4.31a.91.91,0,0,0,1.1-.6c-.32-.34-.67-.28-1,.08C352.24,68.23,352.23,68.42,352.21,68.59ZM355,65.18c-.42.46-.84.93-1.24,1.4l1.24.25C355.84,66.32,355.69,65.75,355,65.18ZM319.63,99.85c.46.13.55,0,1-.19-.32,0-.51-.17-.87-.1l.32-.2c-.67-.52-.79.19-.82.46l.29.41C319.56,100.11,319.58,100,319.63,99.85Zm50.71-40.27c.44-.42.9-.64.94-1.27-.63.35-.51.73-1.3.51a3.15,3.15,0,0,0-1.6-.08C368.64,60,369.47,59.62,370.34,59.58Zm-56.1,49.75a6.85,6.85,0,0,0,.48-.88C314.33,108.33,313.93,108.67,314.24,109.33Zm41-42.13c-.84,0-1.63-.22-1.6,1C354.16,67.89,354.71,67.55,355.24,67.19Zm-39.77,42.4a1.28,1.28,0,0,0,.35.87C316.07,110,315.93,109.69,315.46,109.6Zm-.45-5.05-.31.15.44.15a2.52,2.52,0,0,0-.68,1.34c-.06.25-.68.47-.94.82.83.17.85.51,0,.69.5.49,1.82,0,.7-.71.7.42,1-.22,1.56-.71.07.09.13.18.2.28-.78.42-.92,1.32-1.12,2.17-.13.57.2.58-.09,1.32-.15.37-.44.55-.14.85.64.57.5-.77.56-1.21.09-.67.06-1.4.87-1.71-.93.77-.15,1.53.48.18a3.15,3.15,0,0,1,.23.7c-.54,0-.44.24-.32.78.18.74.3.47,0,1.37s-1.14,1-.12,1.78c0-.21,0-.43,0-.65.48.18,1.23.79,1,0,.74.5,1.65-.48,2.7-.33-1.79.43-.84,3.21.26,2.37a2.15,2.15,0,0,0,.17,2.55l-.21.07c-.3-.42-.2-.16-.54-.35l.12.47c-.66-.12-1.23-.4-1.81.07a.76.76,0,0,0-1.07-.49c.75.62.38,1.2-.29,1.66l1.32-.25c-.13.88.38,1.11-.21,1.94-.32.44-1.63.68-2.12.89.08.22.12.59.09.49.57,1,1.33-.3,2.19.18l-.32.25c.35,0,1.26.55,1.4.5l1.91-.66a2.92,2.92,0,0,0-.88,1.4c-1.21-.16-2.48-.7-2.89.87-.21.83-1.58,1.5-2.16,2.18,1.07.75,2.23-1.46,3.73-.36.85-2.12,1.17-.39,2.71-1.14.45-.24,1.4-1,1.89-.95.65,0,.81.75,1.54.58a20.24,20.24,0,0,0,3.44-.83c1.7-.7-.91-1.24-1.42-1.31,1.29-1,2.17-1.45,2.36-3.19s-2.82-.58-3.11-.91c1.17-.84-.58-2.34-1.47-2.34a1,1,0,0,1,1.37.43c-.37-2.29-2.28-2.47-2.86-4.34-.73-2.39-1.74-2.59-3.9-2.89a1.33,1.33,0,0,1,1.4-.58c-.65-1.37,2.42-3,1.6-4.28-.52-.79-4.06-.38-4.46.43l-.19-.15c.26-.23.4-.64.7-.83a5.71,5.71,0,0,0-.93-.28c.22,0,.44,0,.65,0,.17-.85,1.79-1.06,2-2.36a4.32,4.32,0,0,0-2.76.51c-.41-.21,0-.29-.57,0-.17-.88-.91-.15-.6.57l-.58.11c-.09.23-.13.38-.18.5.25.23.45.57.72.78a1.37,1.37,0,0,0-1.36-.12c.18.31.2.75.39,1.06l-.54-.11C314.4,104.45,314.65,104.41,315,104.55Zm2.34,8.9a1.25,1.25,0,0,0-.75,1H317A.79.79,0,0,0,317.35,113.44Zm41-46.91,2.22-2.38L359,65.45C358.35,65.45,358.11,65.86,358.33,66.53Zm3.87-4.66a11.42,11.42,0,0,1-1.27,1.19l1.33.06C362.61,62.52,363.16,62.21,362.2,61.87Zm-2.6,1.36c-.91.3-.9.2-1,1.23-.11,1.53,2-.53,2.41-.89C360.66,62.76,360.23,63,359.6,63.23ZM364,61.45c-.6-.37-1.36-.44-1.61.37a4.53,4.53,0,0,0,.66.3A1,1,0,0,0,364,61.45Zm-6.65,4.17c-.42.27-.15.91-.85,1.25.08-.49.17-1,.26-1.44-.63,0-.93.53-.72,1.19l-.52,0c-.09.65,0,.43-.45.94.79.14,1.07.4,1.58-.28A1,1,0,0,1,358,66.8C358.17,66.27,358,65.23,357.4,65.63Zm-1.75,2.8c0,.93-.5,1.12-1.21,1.22.28.2.18.3.53.46a3.52,3.52,0,0,1-.41.7C355.34,70,355.8,69.69,355.64,68.42Zm.88-.3a3,3,0,0,0-.7-.1,2.89,2.89,0,0,0,.11,1c.61-.62,1.23-1.26,1.83-1.89C357.17,67.08,356.76,67.5,356.52,68.12Zm8.94-6.36c-.84-.53-2.28.43-2.87,1.18l1.19-.38Zm.77-1.1a2.28,2.28,0,0,0-.89,0c.06.2.12.4.19.58C366,61.66,366.31,61.37,366.23,60.66Zm96.23-13c-1.23.14-.92.68-1,2l3.27-.58A1.92,1.92,0,0,0,462.46,47.62ZM577.13,169.1c.07.51.14,1,.2,1.52,1.23.13.29-1.27,1.17-1.17,1.07.13.5,1.52.23,2-.57.9-.69,3.81.86,2.7,1.24-.91,1.69-2.57,2.36-4,.16-.36-.52-1.31-.67-1.57-.42-.73-.83.11-1.42-.76,1-.9,2.08.49,2.57-1.3.51.85.89.5,1.53.12.32-.2,1.41-.42,1.54-.6.65-.81,2.08-.29,3-.21-1.44,1.23-.56,2.09.52,3,.58-.82,1.11-2.28,2.25-2.06-.67-.58-.88-1.24-.07-1.78.92,1.48,2.77.81,3.66-.46l.61,1.23a9.87,9.87,0,0,1,1.6-2c-.1.45-.2.91-.29,1.37,1-.33,1.13-1.14,1.93-1.59.11-.06-.17-2-.05-2.53.23-1.07.64-1.1.63-2.4,0-.82-.19-2.18,1-1.57,0-.83-.23-1.44.43-1.87s.48-1.36.51-2.26c0-.63-.68-1.52-1-2.07s0-1.16.14-1.79c-1-.54-1.62.25-1.33,1.33-.61-2.31-2,.71-2.25,1.6-.19.71.67,1,.55,1.4-.31.94-.61,1.9-.91,2.85a5.37,5.37,0,0,1-2.38,3.12,5.42,5.42,0,0,1-2.09.78c-.72,0,.12-1.27.35-1.48-1,.39-1.4.26-1.43,1.45,0,.62-1,1.45-1.34,1.9s.21,1.1-.57,1.45c-1.11.49-.63-.44-1.33-.37-1.28.14-3.68-.18-4.48,1a4.21,4.21,0,0,1-3.55,2.17C580.26,167.78,578.1,168.44,577.13,169.1Zm-1.94,68.1a10.26,10.26,0,0,0-1.88,1.8c-.61,1-.21,1.24,0,2.09a7.86,7.86,0,0,1,.12,2.33c-.06.47,1.11,1.14,1.44,1.44-.14-1-.53-3.05,1.09-2.4-.24-.2-1.87-1.29-1.05-1.5a.82.82,0,0,0,0-1.63,6.5,6.5,0,0,1,.54-.88A11.25,11.25,0,0,0,575.19,237.2Zm43.36,57.29c-1.14-1,.41-2.42-1.37-3-.2-.07-1.12,1.17-1.33.47-.25-.86-.51-1.7-.77-2.53-.46-1.54-.44-2.4-1.72-3.14-.51-.29-4-1.87-4-2.42,0-1.46.39-3.11-.56-4.2-1.32-1.54-1.23-2.15-1.34-4.29a1.7,1.7,0,0,0-2.64-1.31,34,34,0,0,0-2.52-8.25c-1.45.35-1.56,3-1.93,4.3a16.13,16.13,0,0,0,0,4.57c.07,1.77-.95,7.37-3.37,6.48-.85-.3-1.6-1.82-2.49-2.37l-4.84-2.88c-1.49-.88-.85-1.4-.42-3.23a7.41,7.41,0,0,1,2.1-3.33c-1.52-1.48-1.9-1.57-3.91-1.76a34.59,34.59,0,0,0-4.72-.36c.05.73.11,1.47.18,2.21-1.75-.26-3.32-1.2-4.43.43a13.45,13.45,0,0,0-1.84,5l-4.52-2.4c-.55-.29-2.41,1.81-2.84,2.18-2.45,2.09-5.74,3.89-7,7.09-.61,1.64-.62,3-2.2,3.36l-6.25,1.45a9,9,0,0,0-3.45,1.85,5.82,5.82,0,0,0-2.6,3.47L547,290c-1,2.56-1.69,4.72-.65,7.32.61,1.55.45,1.78-.08,3.4-.36,1.14.37,2,.85,3a27.84,27.84,0,0,1,2.43,7.92c.15,1.08,1.06,3.87.68,4.82-.13.34-2.46,1.66-1.33,2.54.94.74,2,2.07,3.2,2.07s2.6.4,3.51-.49c1.33-1.31,1.67-1.79,3.38-2,1.22-.12,2.45-.3,3.67-.34l2.79-.08c.29,0,.72-1.33.87-1.62.48-1,2.34-1.44,3.27-1.89s2.5.29,3.42-.27c.73-.44,2.17-1.78,3-1.67a35.13,35.13,0,0,1,8.25,1.73c1.75.67,1.86,1,2.85,2.76a27.13,27.13,0,0,0,2,3.26,29.33,29.33,0,0,0,4-5.37c.71,2.2-.71,3.93-1.82,5.76,1.83.41,1.74-.64,2.6-2.4.11,1.11-.2,3.84.93,3.84s1.74,2.11,1.93,3c.66,3.13,2.91,4,5.55,4.4,1.71.28,2,.49,3.3-.66,1.53-1.31,1.41-.71,2.69.84.61.74,2.24.15,2.83-.45,1.36-1.37,1.56-1.5,3.4-1.55,3.07-.1,2.8-4.29,3.28-6.93.42-2.28,2.91-4,3.47-6.21.66-2.67,2-5.91,2.13-8.67s-.83-5.66-1.21-8.26Zm-48.48-44.65c-.61,1.73,2.25,1,2.61.82C572.76,249.62,570.48,248.69,570.08,249.84Zm10.09,17.21c-1,.66-2.09-.71-2.19,1.13.82,0,1.67.4,2.31,0S581.17,266.79,580.17,267.06Zm42.22-13.78c.45-1,.62-1.09,0-2-.09-.14-.45.12-.62-.13a3.35,3.35,0,0,0-.49-.78,34.49,34.49,0,0,0-3.07-2c-.37,1.21,4.16,1.8,3.67,4A6,6,0,0,0,622.39,253.27ZM612.57,335c-.59.23-2.38,1.37-2.95,1.11l-3.14-1.4a10.68,10.68,0,0,0,.6,5.09,3.83,3.83,0,0,0,3.46,2.65C612.64,342.84,614.69,335.67,612.57,335Zm3.12-80.25a7.27,7.27,0,0,0-2.31.07c.5,1.22,2.89,1.86,4,1.59a3.28,3.28,0,0,0,2.35-1.46c.14-.29,1.84-.17.78-1.25,1.44-.32.78-1.47,0-2-1.06-.69-.82,1.25-.8,1.77-.12,0-3.56,2.5-2.7.43C616.88,253.59,616.4,254.7,615.68,254.74Zm-7.17-.21c-.63-.69-.22-1.77-1.1-2.32l-2.57-1.62a25,25,0,0,0-4.36-1.68c-2.23-.84-4.45-1.7-6.67-2.54-1.07-.4-2.82.41-3.54,1.38-.26.35-1.43,2.28-1.76,2.13-.94-.46-1.41-.5-1.79-1.51a12.11,12.11,0,0,1-.84-3.16c-.17-1.27-.5-1-1.65-1.31a3.76,3.76,0,0,0-4.53,1.84c.62.11,1.24.19,1.86.28.32.06,0,1.07.4,1.29,1,.58,2.37.23,3.53.17a2.37,2.37,0,0,1-.09.92c-1.41-.48-2.24-.2-3.7.14l1.83,3.12c.53-.66,1.07-1.31,1.62-2,.27,1.56.25,1.5,1.56,2.05l4.59,1.95c.63.27,2.23.57,2.53,1.29.53,1.23,1,2.46,1.55,3.69-1.8.51-2,.32-2.22,2.34,1.38-.13,2.75-.27,4.12-.42.71-.07,1.24,2.07,2.1,2.12,1.45.07,2.78.46,4-.36.71-.45,1-2.64,1.66-2.54s3.11,0,3.67.57l3.29,3.47c.87.91,2,.81,3.2,1,.81.14,2.09,1.12,2.74.89-.49-.53-2.08-1.61-1.31-2.25-.74-.18-1.81-.05-1.3-1.2-1.79-.06-1.7-.52-2.56-2.25-.21-.43-1-.74-1.38-1s-.52-1.18-.67-1.61l1.74-.2C612.71,254.77,609.47,255.55,608.52,254.52Zm-7-130.94a8.57,8.57,0,0,1-.44,3.84c-.75,1.56-.16,1.6.16,3.18a1.84,1.84,0,0,1-.36,1.89c-.26.42.12,1.12.12,1.61,0,1.54-.25,1.86.34,3.35.19-.83.19-2.14,1.17-2.29s1.49,1.07,1.44,1.92c.95-1-.21-2.55-.75-3.46-.69-1.18-1.13-1.42-.71-2.75.58-1.84.4-2.35,2.13-2.68,1.14-.21,1,1.73,2.12,1.75A18.41,18.41,0,0,1,605,125c-.22-.86-.44-1.72-.66-2.58-.15-.58-.83-1-.93-1.64-.31-1.88,1.16-2.81.21-4.69-.51-1,.1-3.74-1.68-2.36.68.68,1.1,1.76.37,2.44-.3.27-.4-.32-1,.13s-.41.55-.2,1.33-.31,2.42-.47,3.35S602.47,122.53,601.51,123.58Zm-35.12,98.85c.9.18,1.49-1.21.33-1.33C566.39,221.41,565.29,222.21,566.39,222.43Zm-1.37.31a3.58,3.58,0,0,1,1.24-2.14c.37-.35.15-1.47.29-2l-.31.16C565.86,220,564.82,221.45,565,222.74Zm3.19-4.29a1,1,0,0,1-1.33-.34,2.58,2.58,0,0,0,.33,1.49c.82-.71.24,1.38,1.07,1.85,0-.31,0-.65-.06-1,.13.27.28.54.39.83C569.1,220.58,568.14,219.48,568.21,218.45Zm-2.87-1.77a2.66,2.66,0,0,0,1,1.13,4.1,4.1,0,0,0,.05-1.2c-.78.06-.6-.87-1.66-.8a1.25,1.25,0,0,1-.25,1.54A5,5,0,0,1,565.34,216.68Zm1.46-.71c0,.76.61,1,1.14,1.45s-.05.56.32,1.05c1.31,1.74,1.16-.59,1-1.68C568.87,215.52,567.72,215.92,566.79,216Zm-4.65,1.65c.18,2.18-.11,3.74,2.16,2.66-.58.76-1.89,2-.65,2.61.48.22.31.89.9.79s.29-.94.28-1.47c0-.78,1-2.29.66-2.82a3.42,3.42,0,0,0-2.33-1.83A3.6,3.6,0,0,0,562.14,217.62Zm-5,28a14.37,14.37,0,0,1-.48,2.24c-.57,1.21-.89,1.34-.15,2.42.42.6,1.45-.21,1.24,1.21-.08.59-.74,2.86-.47,3.3s1.81.65,2.08.13c.13-.23-.29-1-.28-1.29s.38-.69.42-1c.09-.72-.08-1.66,0-2.48s-1-1.37.57-1.56c.87-.1.19,1.54.3,1.92.3.93,1.39.77,1.13,1.72s.39,1.18,1.13,1c-.35.09,1.59-1.53,1.36-1,.57-1.3-.77-.65-1.17-1.62-.11-.25.57-.73.4-1-.24-.46-.48-.91-.72-1.37-.4-.75-.79-.7-1.3-1.26,1.76.66,2.41-2.89,4-1.87.43-1.55-.92-.62-1.49-.6-.74,0-.77.33-1.34.49s-.34-.64-1,.11c-1.69,1.85-3.47-1.4-2.16-3,.63-.76,1.43.12,2.28,0s2.24-.49,3.13,0c2.17,1.27,3.4-1.14,4.06-3-.91,0-1.64,1.43-2.43,2-.44.28-1.2-.24-1.69-.27s-.49.39-1.19.15c-.89-.3-2.52-1.27-3.39-.7a5.32,5.32,0,0,0-2,2.67C558.7,244.09,557.49,244.61,557.14,245.64ZM559.2,214l1.67,2.88c1.13-1.34,1-2-.33-2.91ZM548.32,260.3c0,1.11.77,2,1.58,1S549,260,548.32,260.3ZM598.2,143.7c-.08.4-.07,1.34-.41,1.52-.67.36-.78.36-1,1.14a8.23,8.23,0,0,0,.87,2.55c.25.09.63-.9,1-.79s1,.14.63-.43-1.66-.23-1.47-1.47c.62-.21,1.28.44,1.61.26s1.2-.71,1.53-.38c.5.47,2,1.8,2.68,1.49a9.65,9.65,0,0,1,.52-1.65,2.67,2.67,0,0,1,1.45-.81,3.14,3.14,0,0,0,2.85-1.11c-2.13.06-.53-1.74-.84-2.64-1.47,1.53-1.53,1.12-3.38.18-1.31-.67-1.95-1.86-2.85-3.1-1.14-1.55-.66,1.9-.51,2.42s-.81,1.14-.75,1.76a2.2,2.2,0,0,1-.21,1.55ZM344.83,110.24c.07.5.89,1.61,1.39,1.49a.66.66,0,0,0,0-1.29C346,109.73,345.42,109.91,344.83,110.24Zm48.08,53c-.63.28-1.57,1-2.24.92-.39,0-1.89-.36-2.2.23-1,2,3.06.84,3.46.72C391.42,164.17,392.34,163.76,392.91,163.24Zm-16.07,1.59c0-.73-1.41-1-2.05-.9-1.31.19-1.66-.06-2.84-.75a2.94,2.94,0,0,0-.45,1A14.87,14.87,0,0,0,376.85,164.83Zm-29.4-55c-.17.54,0,1.52.66,1.48s.66.63.82,1.44c.15-.93,0-1.91,1.12-2-.23-.15-.37-.48-.6-.63,2.66-.55-1.67-3-.4-.43-.57,0-.77-.31-.48-.87a1.76,1.76,0,0,0-.66,0A.81.81,0,0,1,347.45,109.86Zm23.77-8.78a4.28,4.28,0,0,0-3.18.09,1.52,1.52,0,0,1,.48,1.77C369.1,101.94,370.3,101.67,371.22,101.08Zm-28.71,50.64c.05.29-.47.84-.53,1.15,0,.16.48.42.46.58-.14.9-.91,1-.16,1.69.58.54,1.18.62,1.26-.3,0-.53.83,0,.95-1s.25-2,.37-3c.25-2-2.05-.81-2.6-.44l-.6-.22C341.28,151.29,342.35,151,342.51,151.72ZM693.06,84.08c-.41,0-2.14-.41-2.44-.12s0,1.31.31,1.56c1.07.86,2.54-.41,3.23.47s2.06,1.43,2.64-.26C695.68,85.18,694.3,84.14,693.06,84.08ZM360.93,105.93a3.84,3.84,0,0,1,1.62-1.3c-.64-.72-.05-1.13.39-1.73C361,102.43,360.83,104.39,360.93,105.93Zm4-9.58c0-.21-.06-.44-.1-.65h.31C365,94.41,363.31,95.36,365,96.34ZM342.41,147c-.71.6.58,1.85,1.21,1.81a7.61,7.61,0,0,0,.45-3.88c-.56.12-.07.58-.4,1A7,7,0,0,1,342.41,147ZM627,255.59c-.54-.27-.44-1.09-1.25-1.34a1.91,1.91,0,0,0,.42,1.55c.31.37.16.92.37,1.16.44.52,2.2,1,1.63-.27A3.28,3.28,0,0,0,627,255.59Zm-41.73-87c.26-.11.68.81.93.48s.95-1,1-1.3c.12-2.36-3-.31-3.52-.69-.72,1.55-1.27,1.19-.71,3.05C584.11,171,584.31,169,585.22,168.6Zm-11.43,81.08c-.91,1.19.88,1.19,1.38,1.12s.21-.86.56-.72.91.48,1.32.37c1.17-.31,1.51.15,2.53.85.45-2.05-1.79-2.25-3-2.57C575.53,248.9,574.47,248.8,573.79,249.67Zm87.88,87a4.68,4.68,0,0,0-.61-2.2c-.91.5-1.26.51-1.5,1.58s-.57.63-1.16,1.45c-.42.58-.34,1.59-.73,2.2a9.87,9.87,0,0,1-1.77,1.56,8.11,8.11,0,0,1-1.78,1.38c-.49.23-1.63.49-2,.94l-3.26,4.4c-1.13,1.5,2.16,1.1,2.61,1.62.65.76,3,1.57,3.69.45s2.11-2.73,2.49-4.14c.51-2,1.22-2.27,2.78-3.43a1,1,0,0,0,.88.82c-.6-1.21-.69-1.33.12-2.38l2.41-3.13c-.23-.77-.47-1.54-.7-2.31C662.66,335.91,662.16,336.31,661.67,336.7ZM651.41,350.5c-.61.22-.21,1-.71,1.63C651.35,351.52,653.14,351.84,651.41,350.5Zm19.85-23.34c-1.56,1-1.85.88-3.63.43-1.08-.28-.36-2.31-1.48-2.85.12,1.13-.62,2-1.33.63-.2-.4.17-1.05-.11-1.46a4.3,4.3,0,0,1-.77-1.09c-.47-1.49.37-1.3-1.27-1.94-.82-.31-1.23-1.12-2-1.33.41.85.83,1.71,1.23,2.58l.46-.36c.44.93,1.37,4.3,2.39,4-.37,1.07.36,2.11,0,3.13a4.43,4.43,0,0,1-1.89,2.67,11.81,11.81,0,0,0,1.37,1.23c.31.18,1.32.23,1.49.55.56,1.05-.75,2.46-1.29,3.05,1,.63,2.12,1.16,2.87-.35.62-1.26,1.8-2.8,1.75-4.24,0-.88,1-1,1.54-.72s.12-.53.32-.73C671.59,329.64,672.8,327.36,671.26,327.15ZM330.55,153.45l1.18.94,1-.86C332.05,152.19,331.6,152.85,330.55,153.45ZM689.71,77.59c0,1.27.2,1.68-.87,2.17-.79.37-.11,1.56.08,2.37a5.06,5.06,0,0,1-3.12-1.25c-.71-.54-2.3.4-2.52-.48-.32-1.28-.14-2.48-1.4-2.58l-4.13-.29c-.83-.07.57-2.54-1.23-2.25-.93.16-.58,2.5-.62,3.42-.07,1.45-4.66,1.87-5.91,2.2,1.07.76,2.32,1.1,2.4,2.56.1,1.71.76,2.39,1.72,3.76.1.13-.67,1.16-.86,1.23-.35.15-1.35-.27-1.72-.34-.66-.13-2.2-.8-2.81-.43l-7.59,4.62c-2,1.2-4.1,1.85-5,4.14-1.76-1.74-1.86-2-4.17-1.65s-2.32.42-3.66,2.38q0-1.05-.07-2.09c-.67.33-1.93,1.31-2.66,1.21-.94-.14-1.8-.65-2.37.26-1.27,2-2.52,4.06-3.78,6.09.67.22,3,.51,2.83,1.34-.51,2-.61,2,.57,3.63-2,.86-3.73,1.73-2.68,4.31.18.42-1.52,1.09-2,1.24-1,.33-1.8.22-1.9,1.36-.1,1.35.26,2.47-1,2.8-1.58.41-1.66.22-1.93,2s-2.44,3.49-3.48,4.78c-1.3-6.06-5.69-17.61,1.57-21.17,2.09-1,3.3-1.33,4.5-3.41s2.46-2.8,4.22-4.12c1.21-.91,2.85-1.4,3.24-3,.29-1.21.58-2.42.87-3.63.07-.28,1.73-.43,2-.5a7.71,7.71,0,0,0-3.08-.27c-.9.11-1.39,1.53-1.88,2.31-1,1.61-3.11,2.76-4.52,3.92-.68-1.81-.5-2.51-.13-4.46a5.12,5.12,0,0,1-3.36,1.05c-1.53,0-1.9-.12-3.1.86a41.06,41.06,0,0,0-5.1,5.22c.5.44,1.76,1,1.37,1.73-.15.28-1.86.4-2.21.44l-5.29.64c.62-.46,1.26-.92,1.88-1.36l-5-1c-.46-.1-1.62.93-2,1.18s-1.2,0-1.79-.08a21.14,21.14,0,0,0-4.49-.22c-1,0-3.77-.4-4.52.31-2.61,2.43-5.17,4.85-7.66,7.44a52.82,52.82,0,0,1-7.56,6c.36.91,1,.83,1.73.9,1,.1,1.08-.07,1.46.93.11.31.45,1.76.77,1.79,2,.17,2.17.48,3.15-1.47.85-1.66,5.61,2.24,5.37,3.56-.55,3.15-1.26,6.25-2,9.36-.67,2.94-1.72,4.55-3.31,7.09a34.47,34.47,0,0,1-4.69,6.57l-4,3.92c-.73.72-2.23.72-3.17.94-.47.11-.89-1.25-1.33-1.35s-1.44.85-1.74,1c-1.48.87-1.5,1.28-2.09,3.06-.94,2.78-3.11,4.26-5.11,6.2,2.21,1.92,4.17,4,3.71,7.28-.3,2.2,0,2.69-1.83,3.63a6.59,6.59,0,0,1-4,.68c.18-1.24.34-2.48.51-3.72.2-1.44-1.1-1.34,0-2.63.69-.81.32-1.94-.67-1.85s-2.41.72-2.71-.72c-.16-.74.79-2.56,1-3.3a9,9,0,0,0-2.32-1.45c-.77,0-2.15,1.3-2.81,1.7L561,155.83c-.74-1.87,1-3.24,2.1-4.39-1.16-.92-1.19-1.18-2.48-.56a10.91,10.91,0,0,0-2.26,1.63,7.43,7.43,0,0,1-2.68,1.69c-.2.07-2.22.79-1.66,1.42a19.5,19.5,0,0,1,2.12,2.55c.86,1.36.75,1.18,2.12.49,2-1,3.48-.14,5.55.4L557,164.83c1,.84,2.16,1.53,2.74,2.76.73,1.58,1.45,3.15,2.15,4.72l-3.52-.65,3.72,2.74-2.74,2,3.4,1c-1.4,2.6-2.61,5.9-4.41,8.17-1.93,2.44-3.4,5.15-6.16,6.3-3,1.24-5.94,2.48-9,3.58l-2.79,1c-.77.27-.59.28-.41,1.19.12.58.13,1.8-.91,1.25-.28-.14-.59-1.52-.72-1.87.34-.08.64-.35,1-.42-1-.81-2.93-1.43-4.09-.49-1,.79-3.38,2-3.79,3.28-.12.4-.91,2.11-.7,2.46l1.78,2.84a47.69,47.69,0,0,0,2.86,3.82c1.22,1.57,1.9,2.1,2,4.11.05,1.23.74,4.13-.18,5a98.45,98.45,0,0,1-7.93,6.71c-.91-.95.37-2.36-.3-3.06-.88-1-1.78-1.93-2.67-2.89-1.6-1.71-2.83-2.68-5-2.77.07-.53.14-1.06.2-1.58-2.11.09-1.72.38-1.9,2.67a15,15,0,0,1-1.26,3.93,4.16,4.16,0,0,0,0,1.75c.1,1.11.1.93,1.12.87.53,0,1.18,3.35,1.36,4,.31,1,2.3,2,3.09,2.56a8.59,8.59,0,0,1,2.29,2.6c.46,1.2,0,2.9.26,4.18a29.46,29.46,0,0,0,1.44,3.6c-1.78-.3-2.87-1.44-4.34-2.58s-1.45-1.68-2-3.46c-.4-1.22-.77-4-1.63-4.93l-3.82-4.07c-.57-.62.23-4,.33-4.9a35.46,35.46,0,0,0-.35-5.39c-.23-3.43-1.3-6.32-2.33-9.57l-2,2.5c-.87,1.06-.78,1-2.08.73s-1.26-.19-1-1.68c.08-.64.62-2.33.37-2.91-.91-2.11-1.4-4-3.12-5.34-1.5-1.2-2-3.28-2.8-5.1-.75.53-1.83,1.69-2.72,1.81l-4.74.66c-.21,0-1.2,0-1.36.19s.2,1.38-.08,1.68l-2.32,2.39-6.6,6.79c-.74.76-2.25,1.13-3.16,1.58-1.17.57-.74,1.44-.72,2.85,0,1.18.38,2.95.07,4.09s-1.15,2.77-.86,3.86a7.48,7.48,0,0,0,1.76,3.79,13.33,13.33,0,0,1,2,3.73c1.08,2.51-3.19,4.71-3.5,1.31a30.14,30.14,0,0,1-.14-4.38c.06-1.47-.47-1.69-1.45-2.73-.12,1,.07,2.09-.77,2.64s-1.79,1.17-2.69,1.76c-2.48-4.71-4.59-9.55-6.75-14.44a24,24,0,0,1-1.81-4.13,18.9,18.9,0,0,1-.11-3.29q-.14-4.69-.29-9.37l-2,2.72c-.66.92-.74.79-1.84.75s-2.64-2.4-3.5-3.32c.88-.2,2.72-.08,2.87-1.29a5.88,5.88,0,0,1-1.57.14c-1.27-.31-2.69-1.53-3.85-2.2-.79-.46-1.31-2.52-1.71-3.37s-7.07.53-8.17.66c-2.46.29-4.94-.68-7.35-1.23-1.06-.24-2.27-.13-2.82-1.2-1-1.92-.74-2.48-2.65-1.78-1.6.59-2.57.37-4.27.09-1-.17-1.71-1.46-2.67-1.9-1.72-.83-1.91-1-2.74-2.85-.57-1.21-.8-2.78-2.07-3-2.21-.32-2.2-.23-3.73,1.57-.52.63,1.32,2.85,1.71,3.5,1.38,2.31,2.56,4.75,3.81,7.14.18-1.08.35-2.16.53-3.24.91,1.61.72,3.22.78,5.11,1.58-.1,4.23.18,5.69-.71s2.76-3.15,3.91-4.46c.11,1.36-.22,3.58.89,4.34a14.3,14.3,0,0,0,2.05,1.41c.64.28,1.39,0,1.76.73.28.5.71,1.88,1.27,2,1,.16.57.84.5,1.84s-2.12,2.7-2.75,3.45c0-.32-.28-.61-.33-.93a6.57,6.57,0,0,0-.85,3.19c0,1.18-.44,1.05-1.42,1.53l-3,1.45c-.6.28-.58,2-1.16,2.26s-1.22-.39-1.72-.18l-2.22,1c-1,.46-.87,1.82-1.81,2.16l-5,1.81c-.5.17-.58.44-.9.93-.41.64-.92.56-1.62.69-1.45.28-2.88.75-4.31,1.13-1.06.27-1.28,1.49-2.43,1.49-1.8,0-2,.4-2.31-1.46s-.71-3.78-1.06-5.67c-.55-2.94-2-4.88-3.48-7.41-.89-1.5-1-1.78-2.58-2.36-.9-.34-.88-3.05-1.06-4a15.52,15.52,0,0,0-1.79-4c-.38-.76-1.27-1.14-1.74-2l-3-5.38c-.5-.88-.88-2.42-2.06-2.12.14-1.1.3-2.2.45-3.32q-.65,2-1.3,4a18.22,18.22,0,0,1-3.27-5c-1.06,1.34.81,3.59,1.42,4.82,1.21,2.5,2.45,5,3.67,7.51.73,1.5.47,3.17,1.56,4.35.46.49,1.63,1.32,1.75,2,.19,1.27.39,2.53.59,3.8.11.74,0,2.15.6,2.69a14.14,14.14,0,0,1,2.25,2.18c1,1.61,1.49,4.09,2.17,5.91.22.63,2,.53,2.44,1l2,2.39c1.14,1.32,3.44,2.78,1.66,4.49,1.2.37,2.5,2.83,3.46,2.59l9.83-2.63c.61-.16,2.35-.9,2.86,0,.31.55-.84,3.69-1,4.37-.59,2.62-2.5,5.1-3.73,7.4-1.06,2-1.93,4.09-3.44,5.67-4,4.17-8.59,8-11.56,13.11-.67,1.12-4.9,6.9-4.22,7.93,1.19,1.78,1.2,2.11,1.06,4.31-.11,2,0,2.14,1.15,3.69,1.78,2.41,1.17,6.15,1.32,9.18a6.83,6.83,0,0,1-3.51,5.72c-1,.49-3,1-3.8,1.84l-3,3.45c-.87,1-1.93,1.49-1.37,2.8.37.88,1.71,2.91,1.61,3.87-.12,1.14.07,3.76-.52,4.67s-3,1.43-3.83,1.83c-1.39.66-1.09,1.3-1.25,3-.08.9.09,3.38-.42,4.12-1.64,2.33-3.17,5.1-5.07,7.16a41.82,41.82,0,0,1-3.38,2.92c-.63.55-1.85,2.11-2.66,2.27l-8.79,1.85-4.05.85c-.65.13-2-1.58-2.43-2-1.59-1.43-1.54-1.41-1.3-3.7.09-.87-.9-2.45-1.21-3.22L357.84,306c-.41-1-1.66-1.8-2.41-2.54-.51-.5-.5-2.86-.6-3.57-.3-2-.59-3.89-.9-5.84-.4-2.61-1.71-4.68-2.86-7-.75-1.53-1.51-3-2.25-4.56-.33-.68.13-1.93.23-2.62.5-3.34.58-6.49,2.19-9.37s.61-5-.06-7.86c-.73-3.11-1.45-6.21-2.18-9.33-.23-.94-1.47-2.06-2-2.79-1.07-1.42-2.11-2.84-3.17-4.26-.57-.76-.17-1.75,0-2.7.22-1.94.45-3.87.68-5.81.2-1.66.28-1.76-.68-3.08-1.1-1.53-1-1.65-2.76-1.55-1,0-3,.68-3.71-.2l-3-3.74c-.44-.54-6.62.44-7.4.84l-4.39,2.23c-1.14.59-1.65.29-2.91,0s-2.15-.74-3.4-.3l-4.81,1.7c-.76.27-1.62-.76-2.24-1.21L304.49,229a11.42,11.42,0,0,1-4.11-4.15c-2-3.42-3.91-6.81-5.87-10.22l-1.88-3.28c-.29-.51.75-2.42.94-2.94.33-.9,1.35-2.56,1.13-3.56-.36-1.64-.72-3.25-1.1-4.88-.24-1.09-1.07-3-.93-4.17a8.89,8.89,0,0,1,1.25-2.26c1.89-3.4,3.76-6.81,5.65-10.22,1.33-2.4,2.91-3.09,5.18-4.54,1.17-.75,1.7-.76,1.92-2.21.27-1.79.55-3.6.82-5.4.32-2.12,4.56-2.52,5.38-4.59.58-1.44.84-3.45,2.29-3.87.38-.11,1.43,1.86,2.6,1.6.52-.11,1.72-.64,2.22-.38.27.15,1.34.95,1.6.8a39.51,39.51,0,0,1,3.47-2.05,26.89,26.89,0,0,1,7.26-2.25,7,7,0,0,1,2.24-.24,5.76,5.76,0,0,0,1.79.59c.6,0,1.17-.72,1.76-.83a8.33,8.33,0,0,1,1.65.09c1.59.09,2.69.36,4.08-.47,1.12-.68,2.16.21,3.33.7-.86,1.89-1,2-.06,3.77.45.82-1.29,2.08-1.87,2.71.93.83,2.07,2.36,3.24,2.67l6,1.59c1.55.41,1.12,2.12,2.65,2.78,1.34.57,2.61.35,3.85,1.23,1.75,1.23,2.67,1.54,3.8-.68.26-.53-.59-1.32-.32-1.8s.68-1.64,1.08-1.75c1.95-.55,2.91-.85,4.86-.33.43.12,0,1,.6,1.12l2.72.56c.73.15.76.5,1.13,1.24.2.38.9-.46,1.22-.36l4.35,1.28a3.29,3.29,0,0,0,3.33-.27c1.67-.82,1.83-1.07,3.48-.27,2,1,5,.65,5.93-1.85.55-1.56,3.3-6.38,2.22-8-.68-1,.81-3.16.46-3.54s-1,.26-1.29.53-1-.52-1.37-.43-1,1.27-1.55,1.53a6.66,6.66,0,0,1-2,.1c-1.26,0-1.8-1.31-2.94-1.51-.76-.14-1.4-.59-1.69.26-.34,1-.33,1-1.32,1.14s-2.54-1.14-3.31-1.6c-1.43-.83-3.91-5-2.37-6.71l-1.54.18c-.22-1.71,2-2.18,2.92-2.2a7.65,7.65,0,0,0,4.27-1c-.48-.25-1-.49-1.46-.75.3-.84,2.09-.47,2.9-.36,1.49.21,1.57-.2,2.76-1a5.41,5.41,0,0,1,2.77-1.22,8.11,8.11,0,0,0,3.47-.1c-.28.49.21.92.73,1.18.82.41.51-.69,1.34.48.31.42,2.57.77,3.3,1.07,1.23.49,2-.25,3.24-.09a5.12,5.12,0,0,0,3.57-1.12c1-.62.44-2.37-.18-3.07-.88-1-2-1.18-2.92-2.09s-1.84-2.18-3.2-2.35a13.31,13.31,0,0,1-1.38-.83c-.55-.37-1.06-.81-1.59-1.2.06-.11.44-.62.44-.62l1.52.3c-.47-1.62.58-2.12,1.77-2.1-.57-.47-1.33-.9-1.64-1.57l1.53,0c-.37-1.16,1.14-.31,1.37-1s-1-.47-1.32-.41c-1.26.21-2.62.24-3.51,1.42v-.42a5.33,5.33,0,0,0-3,1.6c.08-.18.16-.36.25-.54-1.44-.18-.78,1.62-.2,2.31.73.88,1.87.43,3.06.43-.84,1.51-1.81.39-2.73.88s-2.85,2.22-3.91,1.37c.64-1.77-.18-1.55-1.66-2.26.72-.38,3.53-1.4,1.63-2.05a5.35,5.35,0,0,0-1.9,0c-.44,0-1.05-.66-1.43-.92.78.05,1.76.47,2.18-.41-.85.42-3-.55-3.49,0s-2.18,1.88-2.31,2.74a7.44,7.44,0,0,1-.32,2.06c-.27.39-1.37.34-1.47.84-.32,1.53-.24,2.67-1.49,3.48s-.93,2.22-.35,3.35c.37.73,2.33,1.64,2.23,2-.33,1-2.12-.27-2.76.35l-2.88,2.68c-.11-1,.49-1.25,1.2-1.68-.55-.23-1.2-.24-1.85-.49a17.73,17.73,0,0,0-2.47-.38c-.45-.12-1,.25-1.43.42s.15.89-.06,1.06c-.79.66-1.34.06-2-.42-.74.83.08,1.61.51,2.37.66,1.17.69,1-.24,2,1.21.85,2.54,1.14,2.28,2.9-.72-.56-1.23-1.24-2-.29.94.18,1,.77.35,1.31s-.35.88-.07,1.76c-.81-.16-1.43,0-1.78-.85s-.67-.5-1.27,0c-.63-2.14-1.07-2.33.58-3.67-1.53,0-1.53-.19-2.46-1.58-.52-.78-.9-2.11-1.59-2.66-1.21-1-.77-1.76-.62-3.4s-.37-1.52-1.51-2.43c-1.5-1.2-3.24-2.86-5.1-3.11-.48-.07-1.57-1.51-1.73-2a4,4,0,0,0-1.71-2.76c-.51,1.56-1.13.78-1.34-.34s0-.83-1.18-.51-1.89.44-1.14,1.79c.26.47-.67,1.59.17,2.23a11.29,11.29,0,0,1,2.36,1.77c.53.75.45,1.92,1.14,2.54s1.27,1.32,2.34,1.37c.69,0,1.9,0,.82.87,1,.81,5.92,2.86,4.66,4.54-.5-.26-1.93-2.22-2.51-1.66a2.22,2.22,0,0,0-.87,1.52c-.16.71.3.66.8,1.05,1.43,1.12-1,1.43-.89,2.11.12,1-1.81,2.65-1.76,1.09a2,2,0,0,0-.68,2.71c.48,1-1.48,1.28-1.7.51-.42-1.41-5.14-1.24-3.29-3.29a8.69,8.69,0,0,0,5.85-.17c.61-.41.07-.84.73-1.19.45-.23-.66-3.16-1-3.2s-1.33-.07-1.23-.68a.75.75,0,0,0-1.17-.76c.11-.64-1.29-1.7-1.86-1.63-1,.14-1.58-.86-2.31-1.59-1.3-1.26-3.06-1.9-3.46-3.64s-.38-1.74-1.76-2.45c-.71-.38-1.6-.66-2.12,0-.37.46-4.09,3.19-4.56,3l-3.69-1.22c-.63-.2-1.61,1.14-2.08,1.57-.25.22.49,2.11,0,2.77s-2.13,1.09-2.81,1.43c-2,1-2.61,2.65-3.82,4.72-.36.6,1.2,1.17.45,2.16-.45.63-1.67,1.62-1.3,2.38-.44.11-1.46.15-1.71.56s-.7,1.5-1.1,1.54a27.68,27.68,0,0,1-3.83,0c-1.14-.05-1.8,1.35-2.7,1.63s-2.26-1.53-1.26-2.25c-1,.47-1.46-1.2-2.71-.49-1,.57-1.73-.29-2.62.39a8.16,8.16,0,0,0,.28-2.21c0-.41-.06-.83-.1-1.24s-.46.1-.62-.15c-.76-1.16-.2-1.43.11-2.73s1.23-3.21.71-4.42a6.17,6.17,0,0,1,0-3.57c-.7.55-1.16-.51-.87-1.18s1.56-.62,2-.69a2.64,2.64,0,0,0-.22-.41c1.2-1.09,1.77.39,2.82.12a5,5,0,0,1,3.48,0c1.13.36,2.08-.21,3.1.16a6.43,6.43,0,0,0,2.79.3c2-.42,1.73-4.31,1.72-5.9s.25-2-1.17-2.43c-.82-.25-.93-1.73-.76-2.18-.76.18-.46-.29-.78-.42s-1.22-.21-1.36-.31c-.61-.48-.84-.78-1.59-.74a1.09,1.09,0,0,1-1.24-.61c.21,0,.42-.17.63-.2a1.27,1.27,0,0,1-.83-1.2,4.64,4.64,0,0,0,2.51-.44c1.52-1.07.65.85,1.64.6.35-.08,2.24-.39,2.16-.91a8.71,8.71,0,0,0-.77-2.35c.4,0,1.14-.1,1.29.35.2.62.12.66.69.73a4.24,4.24,0,0,0,2.67-.36c-.26,0-.5-.2-.75-.24a5.65,5.65,0,0,1,2.43-1.44c1.17-.57-.06-1.34.51-2.27.25-.41,2.06-.83,2.58-1.07a4.11,4.11,0,0,1,2.48-.31c-.35-.11-1.31-.23-1.34-.65,0-.09.91-.18,1-.27s0-.61.19-.84a5,5,0,0,0,1-2.36c.11-.49.93-.39,1.25-.76,1.05-1.27,2.09-.53,3.33-.93.18-.06,0-.65.31-.71l1-.15a6,6,0,0,1,1.62.18c-.18-1,.64-.73,1.33-.82-.37-.14-1.41-1-.9-1.42.85-.66.11-.61-.17-1.48s.26-1.42-.51-2.05c-.61-.51-.47-.86-.51-1.72-.06-1.43.22-3,1.71-3.09,1.14,0,2.09-1.25,3.18-1.82-.77,1.12-1.16,3.49.5,3.9-1,1.54-2.79,2.05-2.46,4.11.25,1.5,1.66,2.79,3.05,2.12-.19.41-.38.82-.57,1.22,1.37.8,2.55-1.15,3.73-1.29a2.5,2.5,0,0,1,1.71,1.12c.24.8.94,1,1.62,1.35a2.27,2.27,0,0,0,.13-.75l-1.15-.11c.84-.53,3.81-.59,4.39-1.37.94-1.25,3.71-2,5-.94-.12-.08-.59-.23-.83-.36,0,1.29,1.79,1.47,2.45.69.26-.3.36-1.06.53-1.22s.51,0,.68-.17c.44-.4,1-.6,1.34-1.12a3.42,3.42,0,0,1-.85,1.22c2.17,1.06.87-2.95.81-3.93a2.74,2.74,0,0,1,.66-2c.46-.55.09-1.44.85-2,1.94-1.45,2.41,1.75,3.84,1.85.79.06,1.36-1.08,1.24-1.79-.08-.46.3-2.28.18-2.37s-.62.34-.78.22a9.77,9.77,0,0,1-.86-.92c-.21-.24-.61-1.87-.4-2,1.35-.59,3-1.45,4.52-1.26l3.33.42c1.53.19.22-.37,1.14-1,.59-.37,1.44-.14,2.13-.57.47-.3,1.56.14,2.1.21-.32-1-2.37-1.39-3.25-1.77.15-.24.15-.63.32-.85-3.1.6-6.29,1.36-9.46,2-.33.07-1.63.54-1.83.21a2.91,2.91,0,0,0-1.81-1.59c-1.25-.5-1.13-.39-.91-1.83a4.77,4.77,0,0,0,0-2.38c-.17-.66-.86-2.17-.72-2.85s1.39-1.58,1.79-2.05c1-1.15,2.37-1.88,3.33-3.09.5-.6,1.26-2,1.92-2.38s1.59.32,1.23-.94a3.11,3.11,0,0,0-3.16-2.36c-2.15-.08-2.34-.16-3.85,1.52-1,1.07-1.45,1.93-.68,3.29s-5.15,4.25-5.65,4.89c-1.47,1.84-3.94,4.79-2.36,7.52.68,1.17,2.62,1.13,3.24,2.48.43,1-1.19,1.78-1.89,2.39-1.21,1.05-2.15,1.46-2.39,3.13-.2,1.34-.15,3.3-.68,4.53-.72,1.68-2,1.68-3.42,2-.57.11-.54.81-.7,1.39s-.62.5-1.28.54c-1,.07-1.12.32-1.29-.81a5.06,5.06,0,0,1-.19-2.09c.43-1.18-1.27-2.6-2-3.51-.29-.39-.12-1.12-.33-1.58a9.84,9.84,0,0,1-.9-1.87c-.14-.6.4-1.65-.28-1.8s-.67-1.15-.87-1.74c-.41,1.6-.73,1.76-2,2.67-.88.63-1.59,1.6-2.5,2.16-1.4.86-5,.41-5-1.76-.09-2.68-1.13-5.27-1-7.94.11-2.29.27-2.3,1.93-3.71a14.44,14.44,0,0,1,3-1.76,9.68,9.68,0,0,0,3.39-2.15c.89-1,1.78-1.93,2.76-2.85,2.06-2,3-4.4,4.52-6.86s3.43-4.16,5.27-6.24,3.43-4.24,5.83-5.33a64.51,64.51,0,0,1,8.1-3c1.06-.31,1.62-2,2.58-2.61a5.85,5.85,0,0,1,3.36-.58,7.79,7.79,0,0,0-2.38,4c1.2-.23,2.25-2.26,3-3.24q.19.93.36,1.84c.55-.72,1.1-1.46,1.64-2.18.24-.31,1.64,0,2,0-.34.56-.67,1.12-1,1.69,1.44,1.1.61-1.58,1.79-1.11l3.71,1.46c1,.42-.9,1.41-1.29,1.49a11.4,11.4,0,0,1-3-.29c.46.85,1.43.54,1.84,1.53.11.25,1.36-.14,1.8-.12,1.07.1,2.07.56,2.78-.38.32-.45,1.64.53,2.1.76-.26,1-1.19.35-1.89.18-.3,2,3.24,1.25,4.19,1.28a8.81,8.81,0,0,1,4.71,1.6,25.67,25.67,0,0,0,4.93,2.34c1.36.42,3.11,1.3,3.64,2.87s.44,1.51-.43,2.85c-.54.82-.71,1.33-1.57,1.62a6.49,6.49,0,0,1-4.54.28,42.11,42.11,0,0,1-10-3.39c1,1,3.79,2.86,3.79,4.34s-.25,4.5,1.1,5.08c1.53.67,3.5,2.43,5,1.8.88-.36.42-1.79-.45-1.79s-1.26-.81-1.87-1.58c1.39-1.27,1.49-1,3.2-.38L404,81.26a21.79,21.79,0,0,1-1.07-3.18L406.09,76c.55-.37,1.58-1.44,2.24-1.24l3.33,1c.14-.63.67-1.81.44-2.41-.06-.18-1.15-1.93-1.21-1.7.25-1,.5-2,.74-3.06.09-.36-1.1-1.45-1.34-1.75l4,.53c1,.13,1.68,1.67,2.3,2.5-.67.07-2.64-.13-3,.5-.58,1,.5,1.67,1.14,2.51s1.75.33,2.77.17c1.26-.17.35-1.13,1-2,.31-.41,1.47-.66,1.91-.87l3.64-1.66,5.55-2.52c.53,1.75.52,1.73,2.15,2.14,1.06.26,1.61-1.72,2.53-1.62,1.37.17,2.19.37,3.44-.24a3.88,3.88,0,0,1,3.38-.28l-.71,1.23c1.71.51,1.63.59,2.77-.92s.37-1.53-.68-2.89c2.4-1,5.85-.67,8.3.3l5,2c1.19.48,2.39,1.81,3.44,2.61.08-.63.7-2.72.2-3.08l-3.66-2.74c-.81-.59.48-2.3.83-3.13s-1.59-1.41-2.14-1.77l3.6-2.87c.82-.66,1.16-3,1.5-4,.45-1.29,6.16.07,7.5.2L465.56,55c-.27.73,1,2.43,1.3,3.12.6,1.24-1.39,6.75-.41,7.41,1.18.79,2.52.93,1.89,2.43-.36.83-.77,2.78-1.51,3.24L463,73.61c-.56.35-2.31-.25-3-.33,1.65,1.35,3.53,2.54,5.75,1.8,1.76-.57,3.73-3,5-4.35,1.46-1.48-2.31-3.72.78-4.66.59-.18,2.26-1.09,2.72-.55.78.91,1.57,1.82,2.35,2.72-.18-1.19,0-2.34-1-3a2.77,2.77,0,0,0-2.89-.69c-.35.06-3.39.73-3.46.45-.22-.82-1-2.3-.61-3.1.48-1,1.61-2.31.94-3.29-.52-.78-2.15-2.35-1.59-3.22.74-1.15,1.83-1.34,3-1.84.88-.37.13-2.44-.11-3,.66-.17,1.94,1.61,1.55,2.34-.9,1.73-.79,1.68.15,3.38.64,1.15,5.38,1.16,6.59,1.25a53,53,0,0,1-5.07-2.09c-1.93-.91,1.42-2.34,2.18-2.59,2.32-.73,3.28-.17,5.59.7a12.5,12.5,0,0,1,2,1.24c.63.42,1.5,0,2.22-.07a9,9,0,0,0-.92-2.51c-.44-.42-2.09-.35-2.69-.46-.78-.13-.94-3.56-1.09-4.44l7.78-.79,4.4-.44c1-.1.59-1.13.61-2.11.06-1.92-.09-1.95,1.39-2.83a23.26,23.26,0,0,1,3.31-2c2.41-.9,5.34-1,7.85-1.46,4.75-.87,9.32-1.44,13.86-3.17,1.06-.41.58-2.14,1.45-2.58l4-2.06c1.6-.82,4.5-.82,5.68.92L528,32l6,.86L531.56,35l3.33.21c0-.43-.17-2.1.24-2.08l2.58.1c1.3,0,2.75-.24,3.88.53s3,1.57,3.89,2.7c.22.29,1.33,1.42,1.18,1.75s-.52,1.68-.88,1.91L529.65,50l11.17-3.16L538,46.43c1.14-1,2.9-1.89,4.26-.89,2,1.5,2.51,1.42,5,1.19,3.2-.31,6.45.37,9.64.71L555,48.51c.78.38,2.21,1.49,3,1.44l3.83-.2c.76,0,2.86.34,3-.63.27-2,.08-1.9,1.82-1.92a22.13,22.13,0,0,0,3.66-.09c.88-.18,2.75-1,3.59-.68s2,2.25,2.63,3c.38.42-.45,2.8-.46,3.44s.09,3.43.44,3.63l3.52,2c.52.3,2.08-2.34,2.45-2.82,1-1.35.82-1.5,2.19-.62s1.66,1.35,3.21.86c1-.31,2.16-1,3.14-.56.69.36,2.25,1.6,3,1.3l3.6-1.49c-.34-.61-1.49-1.91-1-2.51s1.44-2.5,2-2.43l6.94.9a43,43,0,0,1,5.24,1.34c1.82.47,4.35.62,6,1.56,1,.57,3.33,4.35,4.35,4.17L628,57c1.89-.32,3.71.57,5.55,1.11,1.11.32,1.64.16,2,1.35a3.64,3.64,0,0,1-.06,2.82c1.95.65,3.45,1.38,5.45,1a15.45,15.45,0,0,1,6.1-.11c.84.14,2,.65,2.73.11,1.14-.85,1-.87,2,.12.73.7,1.76,2.24,2.66,2.61.66.26,2-.21,2.75-.28-.21-1.54-.43-3.07-.65-4.61l9.89.78c2.58.19,5.06,2,7.4,3.13,2.71,1.32,5.31,2.71,7.94,4.22,1.62.93,1.85,1,2.54,2.86.77,2.08.55,2.75,2.59,2.75-.24-.84-.47-1.67-.72-2.52a13.53,13.53,0,0,1,5,.76c1.33.46,2.59,2,3.7,2.91-.68.56-1.68,1.79-2.48,2S690.45,77.71,689.71,77.59ZM430.82,148.76c-.35-.32-.34-1.3-.71-1.53-1.6-1-1.85,1.53-1.87,2.44-.91-1.55-1.11-2.2-.35-3.88-.67-.31-2.14-.61-2.62-1.2s-.36-2.16-.46-2.78c0-.05-2.23-.92-1.24-1.16s1.21.92,2.19.19c-.65-.61-1.28-.73-.74-1.53a1.81,1.81,0,0,1,1.54-.63c1.13.19,2.9.13,3.86.58a2.22,2.22,0,0,0-1.35,2.06c.7-1,1-1.62,2.18-1.78-.6-1.9-1-.65-2.62-1.15.25-.83.8-1.77.37-2.55-.18-.34-.88-2-1.46-1.33s-1.53,0-2.32-.34c-.59-.24-1.6.75-2.21.86-1.56.28-1.46-.55-1.91,1.4-.14.54-1.9.95-2.36,1.16-1.09.46-1,.51-1.27,1.79-.12.59-1,1.22-1.42,1.65a2.09,2.09,0,0,1,2,2,7.38,7.38,0,0,0,.88,3.88c.42.94,1.49,1.25,2,2.13.84,1.44,1.1,1.9,2.49,2.57-1.15.35-1.38.22-1.69,1.49a16.84,16.84,0,0,1-.8,2.28,4.83,4.83,0,0,0-.15,2.52c.1,1.1.39.89,1.39,1.13s.9.86,1.59,1.07l2.53.79c1.08.34,3-.35,4.09-.49a13.24,13.24,0,0,1-.17-4c.4-2.07-.53-1.12-1.35-2.59a6.61,6.61,0,0,0,.78.06,3.89,3.89,0,0,0-.39-1.26c-.21-.23-.93.06-1.13-.19-.55-.7-.21-1.38.1-2a10.56,10.56,0,0,0,3.73.21C432.2,149.64,431.39,149.29,430.82,148.76ZM103.11,33.52c.85.16,1.86.66,2.66.05a4,4,0,0,0-.62-.53C104.44,33.07,103.64,32.89,103.11,33.52ZM174,203.44a6.81,6.81,0,0,0,2.21,1.17c.44.13,1-.62,1.81-.34a5.33,5.33,0,0,0-.47-.72C176.55,203.21,174.8,202.23,174,203.44ZM167.18,138l-.27.27.19.13c.33-.4.48-.58.33-1-.07.1-.16.19-.22.3a.82.82,0,0,0-1.24-.47c-.66.28-.91-.36-1.59.14l.54.12C165.57,137.72,166.55,138.37,167.18,138Zm-3.87-1.53c-.41-.29-.48-.12-.59,0,.13.14.27.27.4.42C163.18,136.69,163.24,136.57,163.31,136.43Zm.93.92c0-.08,0-.17,0-.26l-.58-.31-.39.35A2.25,2.25,0,0,0,164.24,137.35Zm53.37-14c.26-.57.53-1.12.78-1.68-1.61-.66-3.35,1.53-3.94,3a14.52,14.52,0,0,1-3.61,5.32,3.91,3.91,0,0,0-.24,2.47c.4.63,1.8.45,2.36.38a9,9,0,0,1,5.43.73,1.22,1.22,0,0,0-1,1.33c1.62-.33,2-1.45,3.64-1.57-.23,1.25-.41,1.26.7,1.69.91.35,1.06.37,1.6-.45s-.08-3-.31-4c-.15-.65-1.28-.92-1.22-1.29.15-1.09,0-1.11-.7-1.93-.54-.63-2.83.21-3.49.39,0-.43.06-1.33-.31-1.49s-1-.26-1-.65C216.34,124.25,216.72,124.14,217.61,123.32Zm-21.94,80.53c.45,1.13,2.41.22,2.86-.48a3.8,3.8,0,0,0-.31-.33C197.34,203,195,202.24,195.67,203.86Zm-16.09-4c.8-.21,1.58-.45,2.37-.7a4.09,4.09,0,0,0-1.87-1.12c-.56-.1-.86-.95-1.12-.93a4,4,0,0,1-3.19-1.55c0,.09-.1.19-.14.29-2.31-1.54-4.83-2.95-7.49-3.21a12,12,0,0,0-4.37.58c-1.25.31-1.59,1.53-2.6,2.16,2,1.05,4.29-3.45,6.27-1.45a1.32,1.32,0,0,1-1,.2,1.39,1.39,0,0,0,1.45.53c.62-.2.68.29,1.35.31,1.09,0,2.12.82,3.29,1s1.12,1.43,2.32,2c.31.14,1.49-.16,1.48.66,0,.27-1,1-1.19,1.22C176.57,200.11,178.07,199.74,179.58,199.87Zm22-65.65c-.94,1.75.69,2,1.87,2.58s1.49-.14,2.31-1l-3.65-.29C201.91,135.07,201.74,134.65,201.56,134.23Zm-.74-7.71c1.2,1,4,3.28,5.49,2.06A6.91,6.91,0,0,0,200.82,126.51ZM257.6,257.45c.59,2.56.64,2.52-.76,4.55q-2.57,3.74-5.17,7.47c-.8,1.18-1.79,2.09-1.89,3.55-.27,3.67-.53,7.35-.79,11-.17,2.43-2.69,4.93-3.95,6.86-.55.83-1,2.23-2,2.28s-3.15-.27-4,.28l-7.25,5c-.48.34-.47,4-.54,4.6s0,2.08-.44,2.7l-6,7.74-5.51,7.1c-.43.53-6.21-2-7.1-2.24-.52,2,2.78,2.2,3.13,3.91.17.85.82,2.45.67,3.28s-1.25,1.85-1.66,2.46c-1.22,1.78-2.84,1.74-4.8,2.27a8.51,8.51,0,0,1-4.71.08c.37,1.21.67,1.72.22,2.87-.26.72.07,1.89-.35,2.18-1.92,1.34-3,.76-5-.24a15.61,15.61,0,0,0-.07,3.31c.16.71,1.33,1.9,1,2.59-.61,1.32-1.22,2.63-1.82,3.95s-.81,1.17-2.15,1.49c-1.16.28-1.37,1.29-2,2.39-.37.7,1.05,2,1.47,2.61.54.76,2.3.1,1.93,1.33a5.69,5.69,0,0,1-1.34,2.58,9,9,0,0,0-2,2.7c-.5,1.59-.9,1.66-2.27,2.46s.15,4.95.41,6.46c.11.55.08,1.87.53,2.23,1,.89,2,1.76,3.06,2.63,1.78,1.52,3,1.26,5.28,1.3L195.55,376c-1.66.76-2,.32-3.68-.5-2.45-1.18-4.89-2.37-7.35-3.54-1.26-.61-1.47-2-2-3.39-1.37-3.24-3.61-6.42-3.21-10q.91-8.08,1.83-16.13c.58-5.17.82-10.57,1.79-15.69l3.66-19.33q1.11-5.89,2.23-11.75a39.8,39.8,0,0,0,1-5.24,29.11,29.11,0,0,0-.56-4.5c-.11-.94,0-3.19-.49-4s-2.27-1.58-3-2.12c-1.52-1-3-2.1-4.53-3.15s-2-2.13-2.9-3.88c-1.85-3.48-3.72-7-5.58-10.44-1.53-2.87-3.06-5.73-4.59-8.61-.94-1.77.66-5,1.09-6.87.22-.91.33-3,.9-3.67l2.62-3.37c2-2.5,3.63-4,3.12-7.47-.12-.8-.6-1.23,0-1.82.08-.08-.21-1.21-.11-1.62.24-1.07-2.13-2.06-1.88-3.09.32-1.28.25-1.13-.8-1.73-.75-.45-.75-.39-1.53,0a8.19,8.19,0,0,0-1.55,1.26c-.27.25.5,1.16.67,1.46-1.5.64-1.44.83-2.13-.82-.31.9-1.82-.62-2.65-.79-.44-.08-.73.42-1,.22l-1.37-1.05c-.94-.71-2.81-1.59-3.46-2.63-.55-.87-.28-2.2-1-3-1.79-2.06-2.87-3.89-5.36-4.59-1.93-.53-5.15-.68-6.67-2.17-1.33-1.32-2.68-2.64-4-4-.87-.86-2.11,0-3.16.38-2.38.73-4.81-1-7.07-1.91l-5.49-2.22a7,7,0,0,1-2.12-.87l-3.57-3.63c-1.1-1.11-.45-1.78,0-3.34.29-1-1.6-3-2.12-3.82a11.3,11.3,0,0,0-1.89-2.28c-1.28-1.2-2.57-2.37-3.85-3.57-.29-.27.08-1.1.14-1.47s-.63-1-.84-1.29a16.32,16.32,0,0,0-2.81-3.11c-1-.75-2-1.2-2.36-2.45-.21-.7-.74-4-1.33-4.31l-3.56-1.63c.4,1.35.67,4,1.52,5a16.67,16.67,0,0,1,3.17,4.65,4.4,4.4,0,0,0,1.59,2.15,5.18,5.18,0,0,1,1.13,2.29,8.07,8.07,0,0,1,.77,2.62c.07,1.46.7.42,1.14.74s1.45,1.25,1.34,2c-.14,1-1,1.22-1.42.47-.86-1.58-2.37-2.52-3.76-3.52-.39-.29-.25-2.09-.28-2.6-.06-.79-1.2-1.31-1.73-1.76s-1-.23-1.61-.74-1.32-1.16-2-1.76c.78-.09,2.64-.25,1.6-1.77a6.06,6.06,0,0,0-2.68-2.67c-.9-.44-1.13-1.94-1.5-2.9-.64-1.62-1.27-3.24-1.89-4.87s-3-3.32-4.68-3.79c-1.39-.38-1.86-.26-2.48-1.61l-2-4.42c-1-2.18-3-3.51-3.66-5.89a22.17,22.17,0,0,1-.68-8.36c.12-2.72.27-5.43.41-8.15s-.48-4.28-1.31-6.8a35.08,35.08,0,0,1,4.45,1.36c.06-2.21.15-2.48-1.27-4a19.86,19.86,0,0,0-3.35-2.85c-1.11-.79-2.3-.79-3.51-1.32-2-.87-2.27-.94-3.16-3-1-2.42-4.61-3.68-4.37-6.37.21-2.46,0-2.27-1.93-3.51-.28-.18-1.46,2.44-2.3,1.16-.62-1-1.62-3.41-2.59-3.87A4.86,4.86,0,0,1,63.33,106a28.16,28.16,0,0,0-2.72-4.12,21.69,21.69,0,0,0-3.21-2.22A30,30,0,0,0,50,96.08c-1.09-.41-2.42.52-3.52.26S44,94.8,42.93,94.17c-1.41-.87-1.81-1.19-3.4-1-1.41.14-2.11.51-1.57,2.3.44,1.51-5.32,3.07-6.59,3.49a.88.88,0,0,1,.66-1.3c-1-.3-.24-3.11.38-3.45a6.15,6.15,0,0,1,3.76-.8l-1.11-1c.43-.3.85-.63,1.27-.94a11.39,11.39,0,0,0-5.76,2.67c-1.86,1.4-2.6,3-3.8,5.1l1.77.44a25.06,25.06,0,0,1-5.86,5.41c-1.16.84-4.82,1.78-5,3.5-.13,1.56-4.9,2.44-6.26,2.83a10,10,0,0,1-1.69.26c-.71.08-.35.46-.88.81a3.54,3.54,0,0,1-3.2.68C6.82,112,8,111.76,9.29,111c1-.61,3.85-3.36,4.72-1.84.61-1.1,2.9-3.63,4.15-2.76-.42-1.18,1.72-1.93,2-3.25a2.9,2.9,0,0,1,.94-2.08c.47-.47.93-.71.46-1.44-1.55.85-3.23,2.24-4.82,1.07-.55-.4-1.6-1.59-2.25-1.31L12,100.41q-.43-2.47-.85-4.93c-.4.23-2.51,1.76-2.81,1.54-.79-.65-2.31-1.42-2.84-2.33s-.64-2.89-.89-4c-.21-1,.55-1.69,1-2.48.92-1.57.81-2,2.49-1.82,1.4.14,1.6-1,2.83-1.5s2.22.46,2.81-1c.47-1.2-.23-1.42-1.06-2.34l1.11-.64c-.53-1.58-1.79-.17-2.69.34-1.15.66-1.33-.13-2.48,0-2.29.3-4.87.77-6.13-1.73.29-.08.55-.38.85-.44C2.26,78.64.78,78.47,0,77.37c1.65-.87,2.81-1.65,4.63-1.65l-.39-.5A7.27,7.27,0,0,1,8,74.14C8,76,9.35,75.69,10.76,76.06c1.23.31,1.62-.23,2.69-1L12,74.43l.58-.22c-.54-.44-.72-.94-.13-1.36a15.08,15.08,0,0,1-3.67-.74c-1-.34-1-2-2-2.42-.67-.32-3.57-1.12-3.86-1.8-.14-.31.51-1.69.61-2s.72-.17.94-.18c1.08-.08,2.74.27,3.44-.73a19.55,19.55,0,0,1,2.53-3.27,12.72,12.72,0,0,1,6.31-2.92c1.45-.25,2.64-.25,3.82-1.19,1.63-1.3,1.53-1.33,3.32-.38,1.59.84,6.1-.31,6.79,1.63.51,1.43,5.21,1.3,6.76,1.51,2.35.3,4.7.57,7,1L54.8,63.12c2.27.41,4.41,1.72,6.54,2.68.37.16,2.78-2.77,3.17-3.15.64-.66,1.88,1.28,2.62.95,1.23-.54,6.72-3.89,7.53-2.58l-6,3.17c1.55,1.07,6.65-3.39,7.09-1.49l1.79-2.1c.48-.57-.72-.73.17-1.44,1.53,1.78,3.06,3.43,4.74,5a5.82,5.82,0,0,1,2-3.41c.76.8-.57,1.15.47,1.76.38.22-.24,1-.42,1.42a7.62,7.62,0,0,0,2.44-.63c.2-.17-.25-1,.13-1s.75-.11,1.13-.17c1.34-.19,3.11,1.09,4.34,1.62,2.55,1.1,5.45,1.5,8.12,2.21-.06-.19-.12-.38-.18-.58,1.7.07,2.59.87,4.06,1.86,1.1.76-2.25,1.92-2.5,2a9.9,9.9,0,0,0,3.5.87l5.81-.46c.9-.06,2.48-.34,3.1.62l2.66,4c-.14-.57-.27-1.15-.4-1.73-.09-.35.27-.68.22-1-.21-1.38-.81-1-.06-2.37.52-.9,4.47-1,3.59-2.39a12.41,12.41,0,0,1-5.35,1.35c.46-1.75,1.17-1.56,2.74-2.1s1.86-.7,3.36.16c.43.24.7,1.24.93,1.68.3.6.75.52,1.36.66a24.33,24.33,0,0,1,3.57,1.11c1,.38,6.52,1,6.75.24.47-1.58.54-2.33,2.28-2.33a15.35,15.35,0,0,1,3.4.86c-.15.52-.83,2.11-.66,2.58s1.7,1.15,2.14,1.44c-.56-1.79-1.22-3.36,1-3.7.91-.15,1.43-1,2.1-1.62.47-.46.14-1.07,0-1.73l-1.7.81c-.21-1.77,1.07-2,2.31-2.15-.06-1.38-1.36-.4-2.21-.72-.67-.26-3-.7-3.26-1.42a8.93,8.93,0,0,1-.56-4.12c0-1.6.77-1.81,2-1.32.21-.77-.31-1-1-1,1.19-.76,1.36-.66,1.32-2.16a5.55,5.55,0,0,0-.67-3c-.45-.86-.12-2.12-.06-3.09,0-.76,1.3-.35,1.89-.34-2.16-2.38,1.64-1.71,3.11-1.7a16.47,16.47,0,0,1,5.46.78c-.83,1.2-2,3.81-3.13,4.52s-3.63.11-4.74.09c3.56.53-.53,2.84-.31,4,1.81-.32,2.84,1.27,3.17,3,.21,1.11,2,2.43,2.71,3.31l-2.65,1.78c.88.34,1.58.92,2.39.36s1.53.13,2.39.55l-1.26.87c.84.72,1.29.74,1,1.89s-.46,1.38.55,2a4.38,4.38,0,0,0,1-2.39c0-.41.39-2.08,1.13-1.63.47.29,2.09.91,2.21,1.49.21,1,.83,2.1-.38,2.49,0-.24-.13-.49-.12-.72-2.47,1.37,3,6.31,3.27,3.63.06-.75,0-1.2.5-1.67.26-.24,1.09-.74,1.09-1.14,0-2,0-1.89,1.71-2.63-.67-1.05-1.3-1.56-1-2.8s.94-.94,2-.75c.73.12,2.71,0,3.22.64a3.72,3.72,0,0,0,2.61,1.58c-.57,1,.34,1.71-.27,2.44-.39.46-1.7.29-2.26.34A8.16,8.16,0,0,0,167.28,70c.89.84,1.3,1.5.33,2.73-.64.81-2.2,1.35-3.05,1.87s-1.43-.59-2.11-1.22c.34.78.68,1.55,1,2.32l-1.59-.83c.06.22.13.43.2.65l-1.62-.38c-.36-.08-.07-1-.44-1-.83,0-2-.31-2.38.64.5.31,1,.6,1.52.89A6.49,6.49,0,0,1,157.33,78c-1.21.68-1.64.11-2.88-.55-1.93-1-3.63-.92-5.79-1l4.46,2.25c1.09.55,2.89.36,4.07.52-.47.81-1.27,3-2.06,3.39-.46.22-1.08.69-1.59.66s-1.23-.29-1.76.09c-1.65,1.16-1.77,1.24-3.64.66-1.17-.35-2.36-.64-3.54-1L147,84.11c-.17.15-.28.37-.46.51a2.61,2.61,0,0,1,2.58.34c.59.33,1.51,1.21.52,1.67a4.56,4.56,0,0,1-2.71.44c-.38,0-1,1.32-1.18,1.62-.94,1.48-2.44,3.08-2.82,4.88-.42,2-.84,4.08-1.28,6.12.81.19,2.61.21,3.22.77s1.08,3,1.42,3.91c.59,1.65,1,1.05,2.55.7.83-.19,1.78.39,2.56.67a23,23,0,0,1,6.2,3.16c.66.48,1.94,1.85,2.74,1.93l3.55.38c.42,0,2.68,0,2.67.5-.07,1.65-.14,3.29-.21,4.93-.09,2.29,2.19,4,3.51,5.68s4.06-1.38,3.83-2.77-.48-2.92-.72-4.39c-.13-.78-1.15-1.81-1.58-2.47,1.44-.94,4.22-2,5.23-3.42s1.14-4.81,0-5.92a17.42,17.42,0,0,1-2.22-2.37c-.91-1.28-1.2-1.17-.07-2.22s1.36-1,.89-2.65c-.25-.9-.82-2-.53-2.92a4.45,4.45,0,0,0,.06-3.63c-.32-1,.34-1.39,1.4-1.53,2-.24,3.75,1.46,5.66.56,1.22-.57,1.53.07,2.65.87.53.39,2.05,1,2.23,1.76.27,1.07.88,1.9,2.07,1.72a4.08,4.08,0,0,1,2.5.76c-.51.87-.81,1.11-.65,2.1a4.7,4.7,0,0,1,.08,2.7c.26-.06.54.07.79,0-.47.59-1.82,1.55-1.09,2.21,1.25-3.72,5.73,4.4,6.66-.62.2.22.58.25.79.47.5-1.07,1.31-2.1,1.09-3.3-.16-.84,1.07-2.5,1.91-2.31-.11.44-.21.89-.3,1.34,1.94.09,3.24,4.07,4.16,5.67.51.89,2.08,2.67,2.15,3.69,0,.55-.94,1.34-.83,1.87.05.25,1,.82,1.2,1a7.17,7.17,0,0,1,1.59,1.28c.35.59-.22,1.23.57,1.28a5.28,5.28,0,0,1,3.36.95c.85.59,2.53,1.39.68,1.67a20.29,20.29,0,0,0-3.07.9c.62.23,1.44-.22,2.11-.43-.45.83-1.92.9-2.74,1.15s-.54,1.84-.11,1.28a2.08,2.08,0,0,1,1.2-.76c.49-.18.3-.45.59-.61a5.72,5.72,0,0,1,2.39-.67,1.23,1.23,0,0,1-.88-.48c.58,0,1.75.05,2,.75.34.91-.69.84-.12,1.54.67-1.24,1.47-.59,2.52-.24.84.28.19,1.88,0,2.36-.34.93.72,1.25,0,2.32a6.44,6.44,0,0,1-2.31,1.42c-.81.21-1.6,0-2.52.33a4.48,4.48,0,0,0-2,1.62c-1.4,1.54-2.56,1.77-4.63,1.56a36.29,36.29,0,0,0-6.11-.14c-1.84.11-3.75-.52-4.23,1.95-.14.64-1.92.83-2.41,1.18a15.89,15.89,0,0,0-2.17,2.33c-1.23,1.32-1.89,2.89-3.34,4,2.48-1.2,3.8-3.82,6.28-5,1.7-.82,6.31-3.42,7.52-.38-.2-.11-.42-.14-.63-.24,1.25.85-.45,1.48-1.07,2-.8.7-1.46-.52-2.38.12.38.1,1.28,1.1,1.33,1.08a2.8,2.8,0,0,1,1.7-.1,2.94,2.94,0,0,1-1.12,1.73c.28-.11.64,0,.94,0-.47,1.3.91,2.35,1.9,2.59-.11.09-.22.18-.33.25,1.43.7,2.84,1.29,4.09.38,0,.23.08.46.13.68a2,2,0,0,0,.85-.25c-.85-1.1.87-2.69,1.45-3.59,1.13.41.48,1.4.23,2.28.81-.64,2,.62,1.29.93a4.93,4.93,0,0,1-2.83.78c.23.18.34.53.56.72l-3.52,1.42a4.28,4.28,0,0,0-1.3.64c-.5.45-.64-.58-1.06-.23-.79.64-1.51,1.88-2.37,2.7-.58.55-1.14-.23-1.5-.36-1.23-1.76,1.74-3.29,2.74-4,.71-.52.37.09.7.38.67.57,1.07-.22,1.68-.77-.78,0-1.78-.32-2.46.16a2.78,2.78,0,0,1,.65-1.26c-.92-.23-2.08,1-2.84,1.46-.49.33-.48-.4-1.06.27-.29.34-1,.14-1.36.14.6,1.9-2.62,1.21-3.06,2.07l-.39-.4c-.5,1-1,1.13-1.92,1.49-.64.25-.66.71-.93,1.4-.39,1-2.22,4.37.29,4.1-.07-.16-.14-.33-.2-.47a2.87,2.87,0,0,1,.53.61c-.74.53-1.63.07-2.41-.12-.39-.09-.26,1.07-.84,1.1a7.12,7.12,0,0,0-4.25,1.3c1.13-.14,2-.7,3.16-.86-.12.09-.24.2-.36.28.31,0,.63.08.93,0a4.91,4.91,0,0,1-2.16.84c-.7.05-1.93-.2-2.35.54,1.71.19-.75,3.46-1.39,4,.4-.71-.83-1.18-1.1-2,.06,1,1.32,2.37.87,3.28a20.24,20.24,0,0,0-1.54,3l-.18-.05a5.21,5.21,0,0,1,.59-1.9c-.45-.29-.23-1.19-1.13-.94a8.55,8.55,0,0,1,.44-2c.06-.11.63-1.41,0-1-1.46,1.06-1,1.75-.63,3.55a3.82,3.82,0,0,0-1.4-.73c.37.54,1.26.71,1.55,1.24s-.31,1.61-.19,2c.21.72,1.21.35.94,1.54-.21,1-.81.87-1.65,1.14.73,0,2-.24,1.8.85-.07.45-1.58.47-2,.54.22.13.39.34.62.47-.34.11-.5.33-.91.33.35.88.88.08,1.47.44l-1.23.68c-.32.16-.77-.35-1-.21-.5.29-1,1.46-1.34,2s-1.14.21-1.6.79a5.75,5.75,0,0,1-1.36,1.55c-2,1.16-2.3,1.68-3.37,3.84a5.32,5.32,0,0,0,.3,3.85,35.73,35.73,0,0,1,2,5.3c.29,1,.55,3.54-.17,4.25-.54.55-1,1.27-1.63.38-.2-.28-1.36-1.32-1.38-1.41a12.48,12.48,0,0,0-.87-2.12c-.34-.77-.73-1.22-.5-2.13l-.41.36c-.34-1.17.73-2.85-.44-3.65s-1.59-2.11-2.8-1.72c-.65.21-1.34.7-2,.29a8.56,8.56,0,0,0-1.87-1.21c-1.07-.29-2.86,1.13-3.17-.68-.2,1.58-3.7.44-4.73,1.26.72.07,3.4.4,1.4,1.36.21.11,1.3.49,1.34.68a.58.58,0,0,1-.74.71c.28-.73-.8-1-1.31-1.33.11.51-.11.69-.12,1.08-.49-1-.92,0-1.58-.46-.84-.63-1.2-1.22-2.17-.88-.55.19-1.32-.32-1.84-.53-1-.37-2.55.75-3.5,1.16-1.56.64-5.28,3.4-5.3,5.64,0,.69.91,1.39,1,2.08a6.45,6.45,0,0,1-.47,1.68,14.21,14.21,0,0,0-.87,3.76,13.54,13.54,0,0,0,2.22,8.24c1,1.58,1.45,2.68,3.16,3.18.35.12.92,1,1.22.89q1.06-.42,2.12-.8a6.38,6.38,0,0,1,1.9-.44c.51,0,.91.62,1.17.51a4,4,0,0,0,.9-.43c.16-.14-.25-.57,0-.79a2.82,2.82,0,0,0,1.15-1.57c.4-1.37.28-3,1.73-3.54a10.93,10.93,0,0,1,3.19-.63c.81.1,3.15-.38,2.41,1.38-.29.69-1.24,2.76-1.75,2.8.26.14.11.4.7.38-.22.19-.39.45-.61.6l.11.15.33-.22a13.45,13.45,0,0,0-.68,2.53,1.64,1.64,0,0,1-.41-1.47,5,5,0,0,0-.57,1c1.09.05-.16,2.14.21,2.92s-.85,2-1.32,2.44c1.54.54,3,.13,4.75.38.66.09,1.14-.49,1.79-.38a9.33,9.33,0,0,1,2.39.34c1.44.63,2.37,1.65,2.11,3.32-.18,1.08-.34,2.14-.51,3.22-.1.63-.61,1.17-.69,1.77-.36,2.92,3.17,7.66,5.82,6.58,1.64-.67,2.48-1.34,4.19-.82s2.3,1.4,3.54,2.76c-.09-2.07,2.48-4.87,3.46-6.54.3-.51,2.21-.83,2.72-1l4.18-1.5c1.27-.46,3.58.65,4.83.94l9.89,2.3c1.79.41,3.59.44,5,1.76l7.71,7.41c1.63,1.55,5.18,1.59,7.24,2.1s3.45,3.7,4.67,5.3l3.72,4.86c.29.4,1,1.69,1.42,1.85l7.95,2.87,8,2.87c2.19.8,4.47,3.22,6.42,4.62.36,0,2.82.07,2.88.34C257,255.09,257.33,256.27,257.6,257.45ZM172.53,144.52c0,.82-2.69,1.48-3.48,1.45a2.26,2.26,0,0,0-2.24.82c-.6.53-1,1.13-1.86.72a1.48,1.48,0,0,1,1.14-1.11c-.3-.46-.36-.12-.52-.72a15.09,15.09,0,0,0-1.64,2.52l1.3.36-.29.4c1.78.17,2.52-.7,4-1.26a14,14,0,0,0,3.83-2.24C172.83,145,172.89,144.8,172.53,144.52Zm2.31-.57c1.36,1.31,4.26-1.21,2.78-1.81l1.24-1.08c-.84.34-2.61,1.68-3.22,1.42-1.07-.48-2.43.17-3.54.41C169.75,146,173.88,143,174.84,144Zm-27.49-9.08c.81.42,1.61-.11,2.41-.38l-.22.53c1.92,1,4.68-2.89,6.13-1.76a2.48,2.48,0,0,0-1.48,1.61c.67-.37,1.32-.42,1.78.23s.9.33,1.54.7a27,27,0,0,0,3.52-.9c-.27.86.54.64,1.08.9s.6.9,1,1.27c-.67-.09-1.37-.5-1.66.3-1-1.12-2.92-.51-3.57.64l-.19-.16c.1-.16.2-.31.31-.46-.27.19-.5.19-.76.44,0-.18-.06-.36-.08-.53a9.4,9.4,0,0,0-2,3.41c.79.16,1.16-1.34,1.8-1.76.11.72-.61,1.82-.81,2.58a10.64,10.64,0,0,0-.7,3.15c.1,1.63.92,5.83,2.54,2.56.85-1.72.56-2.91.24-4.64-.36-1.94,1.06-2.24,1.6-3.45,0,.34,0,.75,0,1.09.54-.57.31-1.57,1.36-1.66-.9-1.18.94-1,1.46-.42s1.49.35,1.73,1.45a1.08,1.08,0,0,0-.33,0c.36.61.53,1.66-.11,2.09-.13.08-1,1-.86,1.29.16.6,1.64-.76,2-.74.8,0,.83,2.12.95,2.75.45-.51.9-1,1.34-1.5.28-.31,0-1.2.18-1.65.32-.95,1.31-2-.11-2.71,1-.51.56.79,1.41.68-.13.26-.06.34-.29.57.24.16.23.12.32.36.48-.45,1.35.19,1.86,0,.08,0-.21-.9.64-.42-1-.86-.87-2.86-2.38-3.19-1.26-.28-2.81-.32-4.11-.59-.47-.1-3.14-.88-2.93-1.24s0-.61-.25-.9.25-.57.15-.9c-.28-.92-1.06-.42-.58-1.77-1.93.34-1.92-.51-2.9-2-.52-.81-1.16.11-1.69-.13a4.21,4.21,0,0,0-2-.64c.71.6.09,1-.53,1.41a2,2,0,0,0,.35-1c-.59.32-.48,1.06-1.09,1.31a5.5,5.5,0,0,0,.27-.69c-1,.18-.59,1.14-1.31,1.45l-2.61,1.16ZM97.92,74.71c-.25,0-.52-.25-.78-.25.22-.17.38-.46.62-.6-.9-.12-1.51,1-2.42,1.14a4.09,4.09,0,0,1-2.84-.24c.31-1,1.77-1.25,2.56-1.62-1.66-.61-2.05-.76-3.69-.13-1,.39-2,.74-3,1.09s-2.25.52-3.34.89c-.57.18-3,.3-1.25,1.45l.49-.35-.18-.34a7.2,7.2,0,0,1,3.32-.06,1.63,1.63,0,0,0-.19-.39,4.75,4.75,0,0,1,3.51.66c-.56.92-2.07.12-3,.37a3.09,3.09,0,0,1,1,1,4.13,4.13,0,0,0-1.28.67c.75.9-.53,1-1.12,1.12.81.63,1.73.18,2.56.56.58.27,1.36-1.22,1.89-1.57.86-.57,2.41-.12,1.18.68-.49.31-.57.75-.8.94s-.72.19-.94.37c1.21,1.1,2.42-2,3.95-1.55a1.47,1.47,0,0,0-1.11-1c1.24-1.3,3.69.62,4.25-.79a3,3,0,0,1-.71.07c0-.86.63-.4.83-.89S97.76,75.13,97.92,74.71Zm16.66,12.51c-1.3-.56-3.36-1-4.6,0a14.78,14.78,0,0,0-1.16,1.46,2.52,2.52,0,0,1-1.89,1c-.83.09-2.21,0-2.61-1-.11-.29-1.55.05-2-.69-.11-.2-1.45-.77-1.62-.62s1.34,1,1.61,1c-.47,1.12,2,2,.5,2.36-.48.13-.9-.27-1.25.25s-.15.77-.81.92l.31.26c-.5.42-1.1,0-1.72,0,0,.11,0,.22.07.33-.64,0-1.15-.34-1.76-.29.81,1.11,2.89,1.35,4.17,1.56.8.12,3.92-.33,3.4-1.37,1-.85,1.56-.58,2.63-1.07a9.66,9.66,0,0,0,1.77-1.59l-.46,0a4.08,4.08,0,0,1,1.83-1.2c.68-.18,1.12.12,1.7-.53-.52.23-.58.15-1.07,0,.46-.12.94-.24,1.42-.35a1.74,1.74,0,0,1-1.27-.26c.34,0,.7,0,1.05,0-1.27-.44-2.39.45-3.59,1.19.42-1.48,4.39-2.38,4.6-.68A6.15,6.15,0,0,0,114.58,87.22Zm21.61,33.6c.12-.8,0-.43.52-.71,0,.21-.08.41-.11.62a.68.68,0,0,0,.21-.36c.63.23.44,1,.37,1.65.18-.36.51-.75.92-.54s-.25,1-.34,1.29a3.22,3.22,0,0,1,.72-.38,2.08,2.08,0,0,0-.62,2.36c.25.84.77-.14.73-.61.16.1.34.1.5.19-.34-.75.29-1.58-.22-2a6.12,6.12,0,0,1-1.07-2.18c-.39-1-2.33-5.24-1.47-5.73l-.21-.08c-.28.34-.34.29-.75.36a1.2,1.2,0,0,1,.81-.9,5,5,0,0,0-.44-.36c-.62,1.12-.61,1.45.29,2.1-.69-.31-2-1-2.28.13-.51,1.86-.21,1.5,1.16,1.85-1.58.35.35,2.22.75,3ZM4.47,95.4c-1.3-.55-1.95.42-3.34.26A3.88,3.88,0,0,0,3.49,97c.15-.49.7-.34,1.21-.4a3.13,3.13,0,0,0,0-.33C4.59,95.91,4.22,96,4.47,95.4ZM82.9,53.73a8.54,8.54,0,0,1,3.07,2c1.45,1.67,1.26,1.65,3.12.59l.86-.51c.26-.15.18.43.37.39a11.83,11.83,0,0,0,1.82-.82l.54-2.64c.85.56,1.76-.15,2-1.08s.61-.78,1.33-1.09c1.55-.68,4-1.18,5.31-2.33.84-.74.77-1.12-.18-1.79a11.58,11.58,0,0,0-2.07-1.36c-1.52-.61-3.14-1.24-4.44.21.1-.23.08-.53.16-.76-1.76.5-3.31-1.56-4.94-1.33-1.94.29-3.89.55-5.83.83.33.6,1.78,2.53,1.46,2.83-.65.61-2.24,2.12-1.26,3-1.71.16-.45.8-1.08,1.63s-1.44,1.4-1.2,2.43A4.26,4.26,0,0,0,82.9,53.73Zm7.53-16.19c1,.14.46-.66.75-1,.56-.53,1.32.21,1.17,1.22.51-.17,1.3-.25,1.68-.68s-.71-1.33,0-1.67c.41-.2.75,1.35,1.5.5a.69.69,0,0,0-.37-1.17c.64-.39,1.25.16,1.25-1,0-.54.87-.45,1.12-.19-1.46.95,0,2.42,1.26,2.06.86-.23,3.12-1.9,1.53-2.71a2,2,0,0,1,1-.21c-2.08-.38-.22-1.32.66-1.64-1.34-.73-1.83-1.26-3.24-.71.23.13.28.32.62.43-.62.59-1.21.16-1.88-.1a4.35,4.35,0,0,0-1.74.16c-1.36.18-1.84.74-2.94,1.68-.73.63-2.12,2.38-3.06,2.49-1.52.16-2.66.62-1.41,2.17Zm15.1-8.7c-1.3-1.15-1.32-1.29-2.9-.67l1.7,1.18ZM28.73,102.42c.63.45,1.5-.23,1.77-.64l.31.29.32-.43-1.25-.53A2.1,2.1,0,0,0,28.73,102.42ZM70.35,114.9c.11-1.12-2.62-.71-2.65-.47-.13,1.41,2.93,6.64,4,5.37l-.91-.83A12,12,0,0,1,70.35,114.9Zm-43-11c-1.75-1.05-2,2.62-.18,2.47.52,0,.93-.91,1.58-1a1,1,0,0,0,1.05-1.12c.46.22.78.07,1-.43l-.52-.12C30.64,102.55,27.14,102.33,27.32,103.88Zm58.42,24.73c-.24-.43-1-.55-1.42-.69-.61-.19-.7-.62-1-1.23-1-1.84-1.31-1.43-3.13-2-1.43-.48-1.9-1.15-3.39-.68a24.52,24.52,0,0,0,8.13,6.33C87,131.06,86.73,130.33,85.74,128.62ZM422.7,271c-.5-.7-2.12-3.22-2.23-.8-.08,1.92-.61,1.94-1.8,3.29-1,1.1-1.39,2.14-2.64,2.78a13.09,13.09,0,0,1-3.89,1.43c-.56.09-1.17,2.63-1,3.31.27,1.19,1.11,3.13,1,4.35s-1.62,2.61-2,3.87a6.33,6.33,0,0,0,.25,4.1,33,33,0,0,1,.77,4.17c.09.53,2.45,1.4,2.94,1.18.34-.17,2.83-.91,2.87-1,.31-1.06.64-2.13,1-3.19q1.73-5.82,3.47-11.63a14.68,14.68,0,0,0,.75-6.61l1,1c.87-2.1.15-3.83-.3-6.08Zm135.66-63.4c-.45.83.07,2.11.24,3,.12.73,1.1.8,1.69,1-1.24.64-.38,1.82.59,1.94s.55-.61,1.66,0a3.17,3.17,0,0,1,.92,1.06c.09-.52.18-1,.26-1.55,1.06.4,1.25.26,1.28,1.51,0,.46,1.2,1,1.57,1.23.62-1.35-.75-1-.69-2.2.92.47,1.58,0,.77-.88-.38-.4-.42.47-.74.38a6,6,0,0,1-1.18-.71,3.41,3.41,0,0,0-1.12-.42c-.5-.11-.58.68-.94.66-1,0-.63-1-1-1.76-.72-1.44.21-1,.15-2.26,0-.51.71,0,.88-.25a4.76,4.76,0,0,0,.35-1.21c.48-1.55-.06-.88-.35-2.24-.15-.71.69-1.06.23-2-1.46.72-.82,0-2.09-.29-.42-.08-1.26.21-1.33.67l-.59,3.56c-.11.65.55.85.35,1.57ZM561.76,191c.24-1.08,1.3-3.87-.72-2.91a5,5,0,0,0-2.36,3.39c-.3,1.53.72,2.54,1.47,3.67A15.94,15.94,0,0,0,561.76,191Zm-4.48,27.15c-.34,1.6-.5,2.46-1.65,3.54a11.72,11.72,0,0,0-2.57,3.34c1.51-.93,3-1.25,3.28-3.17.08-.51,1.26-1.1,1.66-1.4.11-.08-.26-1.35-.14-1.76A3.1,3.1,0,0,0,557.28,218.19Zm12.93,4.9a1.59,1.59,0,0,0-1.15-1.2c.09.57.18,1.12.27,1.68-.65-.11-.52-.2-.83.23-.64-.4-.85.07-.76.83-.87-.64-1.26.81-2.06,1.13.47-.57.4-1.53-.44-1.58s-.61,1.21-1.1,1.36c-.91.27-2.56,1.34-1.61,2.68.43-.36,1.27-3.18,1.62-1.12.18-.49.26-.36.54-.67.06.62.06.43.52.74-.09-.27,0-.62-.06-.89,2.12-.29.72,1.72,1.13,2.78.26.68,2,1.94,2.27.85h.18c-.46,1.47,1,.9.76-.37-.2-.95-.79-1.58.31-2.38.55.75.21,1.52.68,2.28,0-.45.05-.9.07-1.34l.33.2c.14-.61.89-2.86,0-2.91a1.8,1.8,0,0,0,0-.71c-.26,0-.37-.16-.52-.18l.41-.44C570.89,223.56,570.74,222.86,570.21,223.09ZM559.79,264c-.36-.85-3.28-1.92-3.19-.41C557.57,264,560.62,266,559.79,264Zm-6.27-2.78a3.14,3.14,0,0,0-1.8-.78c-.93,0-.86.4-1.25,1.3a9.4,9.4,0,0,0,5.12.15c2.83-.47-.21-2-1.39-1.59C554.5,261,554.12,261.25,553.52,261.26Zm8.2.85c.34,0,.44-.46.83-.4.87.16,1.28-.7,1.82-.71,1.18,0,3.25.56,4.25-.35-1.42-.53-2.27-.05-3.7-.16-.86-.06-.93,0-1.62.63-.38.33-.85-.38-1.28-.14-.89.53-2.76-1.09-3.64-.1s1.66.82,2.07,1.28C561.14,261.57,561.27,262.17,561.71,262.11Zm1.2-7.8,1.12,1c.44-.66.91-.88.43-1.55-.34-.48,0-.84.48-.74-.31-1.05-1.05-.65-.95.3C563.53,252,563,253.8,562.92,254.31Zm-25.83-12.73c-.06.46.51.84.61,1.27.06.25-.4.37-.31.7s.23.71.34,1.08.43.06.26.9c.6-.29.51,0,.69-.61,1,.88.83,2.78,1,4.06.12,1.14,2.32.23,2.87,0,.08.51.16,1,.25,1.54,1.71-1,1.89-1.35,3.54-.31.26.16.87-.11,1.27,0s.47,1.12.59,1.57c.9-.45,1.8-.9,2.7-1.34-.18.6-.16,1.13.47,1.05,0-1.29.05-2.56.07-3.85s.34-1.23,1.22-2c1.2-1.06,1.19-1,1.07-2.75,0-.77.5-2.14,1.19-2,1.41.31,2,.09.75-1.09-.31-.3-1-.71-1.22-1.12-.12-.25.28-.77.18-1.05-.54-1.54-1.09-1.43-1-3.22,0-.87,1.79-.86,2.31-1l-.84-1.14c.69-.19,1.37-.4,2-.57-.23-.62-.58-.54-1.16-.68s-.8-.85-1.09-1.21-1.86-1.93-2.41-1.86-1.94,2.21-2.38,2.69c-.78.89-.1,1.58-1.22,1.87-1.4.36-1.63.36-2.46,1.63-.59.89-.94,1.85-1.91,2.17s-2,.36-2.62,1.4c-.77,1.31-1.06,1.28,0,2.34-1-.26-3-.2-3.23-1.59l-1.27.77C537.29,240,537.19,240.8,537.09,241.58Zm30.38,22.8a3.28,3.28,0,0,1,1.3-1.31c1-.46,3.41-1.08,3.76-2.31a23.5,23.5,0,0,0-2.71.31,6.1,6.1,0,0,0-1.24.26c-.22.11-.22.58-.48.7a9,9,0,0,0-2.31,1.24c-.72.67.43,1-.48,1.85C566.06,265,567,265.06,567.48,264.38ZM184.75,203.69c.45.07,1.17-.19,1.57,0s.18,1.54,1,1.26c.37-.12.37-1.4.7-1.63.58-.41.74.17.94.16,1,0,1.76-.38,2.94-.38.87,0,.7.77,1.3-.25.24-.42-.65-1-1.06-1-1-.2-1-.2-1.51-1.16-.37-.71-.42-.23-1-.44-.47-.15-1.25-.66-1.72-.4a4.6,4.6,0,0,1-1.27.34c-1.43,0-1.82-.47-3.19.17,1.43.68,1.26,1.13,2.15,2.45-.86.64-4.45-.82-4,.46C182.73,204.1,183.24,203.45,184.75,203.69ZM296.11,82.18c1.07.3,1.73-.55,1.69-1.74.86.48,1.33-.39,1.94-1-.71-.48-.17-1.5-.54-1.72-.72-.43-1.3-1-2.16-.65,1.05-1.77-4.06-3.85-3.17-1.54-1.53-.15-1.93.61-3.4-.05.08.56.15,1.11.24,1.66-.58-.84-.76-1.53-1.72-1.55-.77,0-1.07.85-.83,1.57-.55-.58-1-1.55-1.85-1.37.65,1.54-.19.77-.61,1.46a16,16,0,0,0-.77,1.78,20.29,20.29,0,0,1-1.14-1.85.66.66,0,0,0,.83-.7c0-.41-.9-.58-1.11-.77-1.12-1-1-1.19-2.51-1.17.19.73.71.58,1.35.69.2,1.9-1.73-.21-2.33.53-.73.9.6.87.38,1.3s-.85.09-1.21-.12c0,.2,0,.42,0,.62-.55-.09-.44.08-.88.31,1.25.54,1.6.28,2.88-.22.6-.24,1.86.36,2.49.51l-1.56.77a1.56,1.56,0,0,0,1.5.12c0,.14,0,.28,0,.43-1.53,0-3,.58-4.41.56.22,1.13,2.71.57,3.55.57-.45.5-.19.9.44.81,0,.17-.07.32-.09.48l.48.05c-.38,1.1-2.22.75-1.76,2l3.62-.46c.32,0,.6.83.87,1a5.74,5.74,0,0,0,1.63.36,3.78,3.78,0,0,0,2.77-.18c.47-.23.35-.64.93-.72l1.67-.24C293.95,83.36,295.39,82,296.11,82.18Zm-12.63-24c-.22-.91-1.15-3-.84-3.92.8-2.3,1.27-5.22,2.88-7,1.06-1.19,2.13-2.37,3.21-3.55.29-.32-.46-3-.53-3.5-.17-1-.06-2.67-.92-3.26l-3.23-2.2,4.7-4.6c-1.65-1.12-2.72-1.56-3.52-3.49-.61-1.47,1.29-3.38,2-4.62s2.4-1.95,3.66-2.83a17.85,17.85,0,0,0,3.65-3.27l-1.22-1c1.45-.29,3.1-.35,4.41-1.1l4.91-2.84c-1.79-.7-3.79-1.87-5.66-2.21-1.36-.24-4.18-.54-5.11.63-.59.75-1,1.85-2,1.68l-3.4-.56c-1.29-.22-3.87,1.57-5.11,2.1.2-.37,2.6-4.18.88-4.23-1.5,0-2.94.25-4.19-.77l6.1-2.21c-4-1.74-7.48-3.53-11.69-4.12C267.83.58,263.37-.31,258.65.11l-5.06.45a6.71,6.71,0,0,0-2.27.2c-.81.46-.92,2.32-2,2.14l-4-.71c-1.64-.29-3.6-1.13-5.16-.43L233.3,4.89c2.15,1.38,4.53,2.39,5.92,4.7a75.21,75.21,0,0,0-11.45-3.35c-1.22-.24-3,.38-4.22.54l-8.29,1.1c-1.2.16-3.11,0-4.23.59l-4.71,2.43-11.59,6c1.42,1.57,3.15,1.32,5.13,1.54l-1.28,3.27c-.47,1.21-.65,1-1.88,1a22,22,0,0,0-5,1l-6.77,2c-.54.16-.53,1.51-.64,2.07s.95,1.44,1.18,1.75c.67.93,1.53,2.75,2.49,3.32l4,2.33c.66.4,2.52,2,3.28,1.9l4.48-.57c2.68-.34,5,.2,7.71.65l4.1.69c.67.11,2.08,2.63,2.51,3.19,1.85,2.37,2.84,5.19,4.09,8,.68,1.52.89,1.66.37,3.22s-1.32,2.35-.27,3.48,2.45,1.8,2,3.48-1.08,2.55,0,3.77c1.39,1.53,1.29,1.51,3.16,1l4.08-1.2c-.13,1-.25,2-.38,3.06,0,.34-1.31.66-1.58.76l-2.81,1.2c-.21.09-.24,1.43-.26,1.66-.18,1.36-.93,3.72-.47,5l2.07,5.79c1.11,3.13,3.07,5.67,4.83,8.41,1,1.63,2.07,3.26,3.11,4.88.51.81,2,1,2.78,1.25l5,1.83c.41.15,2.69.2,2.77-.07l3.09-9.64c.82-2.58,1.72-5.09,2.65-7.62.5-1.37.44-1.4,1.7-1.81l5-1.63a15,15,0,0,0,3.5-1.15c1-.71,2-2.47,2.8-3.49s1-1.48,2-1.75L268,68.15c2.24-.59,5-.83,7-2.08l7.61-4.66C283.82,59.94,283.91,60,283.48,58.14Zm255.21,145c.47-.21,1.37-.23,1.47-1s.26-1.62,1-1.57c.14-.66-.06-1.18-.67-1.28,0,.15-.07.31-.1.46-1.77-1-2.64.64-3.87,1.43,0,1.25-.22,1.5.78,2.07a1.88,1.88,0,0,0,1.07.32C538.87,203.62,538.37,203.23,538.69,203.1Zm-7.83,52.43c.31-1.61,0-3.72.48-5.16a1.55,1.55,0,0,0-2.62-1.61c.91-.91,0-.87-.11-1.63-.08-.4-.14-1.77-.48-1.92s-1.45-.34-1.52-.85c-.13-.8.58-1,.46-1.64-.17-.88-1.35-.79-1.35-1.34,0-1-.38-.55-1-1.06s.12-.67-1-.88c-.69-.12-1.17-.05-1.6-.64-.8-1.1-2-1.46-3-2.39a24.73,24.73,0,0,1-2.81-2.56c-.9-1.29-.64-1.94-2.33-2.13-.52-.06-3.07-1-3.33-.66-.41.6,1.61,3.14,2,3.45.78.7,2.48,1,2.53,2.48.06,1.62,1.95,1.3,2.34,2.79.23.87.47,1.75.7,2.63.16.61.74.39,1.12.79.91,1,1.47,3.23,2,4.46a11.22,11.22,0,0,0,2.19,2.79c1.64,1.8,3.29,3.56,5.14,5.28,0-.36.14-.75.13-1.1C529.63,255.69,530.16,254.11,530.86,255.52Zm4.29-7.25c-1-.82-.65,1.31-.57,1.65C535.94,250.37,536,249,535.15,248.27Zm11.06,11.08a1.62,1.62,0,0,1-2-1.81,3.22,3.22,0,0,1-2.87-.44c-.56-.7-.87-.33-1.1.43-.13.44-.66.18-1,.14-1.46-.15-2.49.15-3.3-1.21-.12-.22-2.1-.66-2.52-.94-.24.69-.82.27-1.39.12s-.6.1-1,.59c-1.21,1.4.4,1.52,1.42,1.75,0,.2-.08.4-.12.58,1.21.24,2.34.94,3.47,1.16.59.12,1.28-.33,1.88-.27a9.65,9.65,0,0,1,1.81.66,7.31,7.31,0,0,0,1.54.52l1.25.16c.26,0,.37-.34.57-.33,1.23.11,1.72.52,3,.28l2.26,1C547.14,260.59,548.3,258.88,546.21,259.35Zm-16.49-12.12a1,1,0,0,0,.92.22c.22,0,.37.53.58.76s.12.54.48.84a1.67,1.67,0,0,0,1.12.49c-.33-.38-.26-.75.18-1.11-1.66.06-.81-2.41-2.15-2.29,0,.2.05.37.09.55C530.37,245.83,530.13,246.7,529.72,247.24Z"/></g></g></svg>